<svg width="18" height="18" viewBox="0 0 18 18" fill="none" xmlns="http://www.w3.org/2000/svg">
<g clip-path="url(#clip0_188_2022)">
<path d="M9 0.5C4.31281 0.5 0.5 4.31281 0.5 9C0.5 13.6872 4.31281 17.5 9 17.5C13.6872 17.5 17.5 13.6865 17.5 9C17.5 4.31348 13.6872 0.5 9 0.5ZM9 16.1832C5.0397 16.1832 1.8168 12.961 1.8168 9C1.8168 5.03903 5.0397 1.8168 9 1.8168C12.9603 1.8168 16.1832 5.03903 16.1832 9C16.1832 12.961 12.961 16.1832 9 16.1832Z" fill="white"/>
<path d="M12.292 8.28235H9.65842V5.64874C9.65842 5.2853 9.36411 4.99033 9 4.99033C8.6359 4.99033 8.34158 5.2853 8.34158 5.64874V8.28235H5.70798C5.34387 8.28235 5.04956 8.57733 5.04956 8.94077C5.04956 9.30421 5.34387 9.59918 5.70798 9.59918H8.34158V12.2328C8.34158 12.5962 8.6359 12.8912 9 12.8912C9.36411 12.8912 9.65842 12.5962 9.65842 12.2328V9.59918H12.292C12.6561 9.59918 12.9504 9.30421 12.9504 8.94077C12.9504 8.57733 12.6561 8.28235 12.292 8.28235Z" fill="white"/>
</g>
<defs>
<clipPath id="clip0_188_2022">
<rect width="17" height="17" fill="white" transform="translate(0.5 0.5)"/>
</clipPath>
</defs>
</svg>
