<svg width="8" height="16" fill="none" xmlns="http://www.w3.org/2000/svg"><path d="M6.807 15.466.39 8.435a.619.619 0 0 1-.123-.2.676.676 0 0 1 .123-.68.545.545 0 0 1 .401-.181c.15 0 .294.065.401.182l6.418 7.03a.618.618 0 0 1 .123.201.676.676 0 0 1-.123.679.545.545 0 0 1-.4.182.545.545 0 0 1-.402-.182Z" fill="#596077"/><path d="M7.609 1.411 1.19 8.441a.545.545 0 0 1-.401.183.545.545 0 0 1-.402-.182.619.619 0 0 1-.122-.201.676.676 0 0 1 .122-.678L6.807.532a.545.545 0 0 1 .4-.181c.15 0 .294.066.402.183a.619.619 0 0 1 .122.2.676.676 0 0 1-.122.677Z" fill="#596077"/></svg>