<svg width="15" height="15" viewBox="0 0 15 15" fill="none" xmlns="http://www.w3.org/2000/svg">
<g clip-path="url(#clip0_183_1592)">
<path d="M8.29546 5.6113C8.14007 5.54338 7.95578 5.57054 7.8281 5.68293C7.68619 5.80786 7.64025 6.01699 7.71715 6.18975C7.78685 6.34641 7.94619 6.4507 8.11782 6.4507C8.33628 6.4507 8.52635 6.28255 8.5531 6.06585C8.57643 5.87689 8.47033 5.68769 8.29546 5.6113Z" fill="#666666"/>
<path d="M5.9509 6.15974C6.01168 6.33206 6.18088 6.45071 6.36343 6.45071C6.57058 6.45071 6.75238 6.3002 6.79351 6.09782C6.83009 5.9178 6.74542 5.73045 6.58879 5.63601C6.43191 5.5414 6.22704 5.55737 6.08542 5.673C5.943 5.78928 5.89008 5.98724 5.9509 6.15974Z" fill="#666666"/>
<path d="M4.60955 6.45071C4.81646 6.45071 4.99826 6.3 5.03934 6.09782C5.07589 5.91792 4.99121 5.73043 4.83462 5.63602C4.6775 5.54126 4.47316 5.55755 4.33124 5.673C4.18868 5.78899 4.136 5.98751 4.19675 6.15977C4.25759 6.3323 4.42691 6.45071 4.60955 6.45071Z" fill="#666666"/>
<path d="M8.29533 3.85709C8.14029 3.78874 7.95548 3.81678 7.82803 3.9287C7.68574 4.05363 7.64057 4.26253 7.71702 4.4354C7.78634 4.59215 7.94627 4.69646 8.11769 4.69646C8.33612 4.69646 8.52622 4.52841 8.55297 4.31161C8.57636 4.12219 8.47005 3.9341 8.29533 3.85709Z" fill="#666666"/>
<path d="M6.36354 4.69646C6.57071 4.69646 6.75248 4.54597 6.79362 4.34357C6.83019 4.16358 6.74552 3.9762 6.5889 3.88177C6.43198 3.78715 6.22718 3.80309 6.08552 3.91875C5.94314 4.03503 5.89019 4.23302 5.95103 4.40552C6.01179 4.57784 6.18098 4.69646 6.36354 4.69646Z" fill="#666666"/>
<path d="M4.60956 4.69729C4.81653 4.69729 4.99827 4.54655 5.03935 4.3444C5.07589 4.16453 4.99122 3.97701 4.83463 3.8826C4.67774 3.78802 4.47285 3.80395 4.33125 3.91958C4.18887 4.03586 4.13592 4.23386 4.19676 4.40636C4.25757 4.57885 4.42686 4.69729 4.60956 4.69729Z" fill="#666666"/>
<path d="M0.992888 11.0282C0.990081 11.0282 0.987304 11.028 0.984497 11.028V11.3608C0.984497 12.6936 2.06274 13.774 3.39282 13.774H3.99777C3.99561 13.7917 3.99417 13.8095 3.99417 13.8277V14.5758C3.99417 14.8185 4.19053 15.0153 4.43273 15.0153C4.67493 15.0153 4.87129 14.8185 4.87129 14.5758V13.8277C4.87129 13.8095 4.86986 13.7917 4.86769 13.774H10.1323C10.1302 13.7917 10.1288 13.8095 10.1288 13.8277V14.5758C10.1288 14.8185 10.3251 15.0153 10.5673 15.0153C10.8095 15.0153 11.0059 14.8185 11.0059 14.5758V13.8277C11.0059 13.8095 11.0044 13.7917 11.0023 13.774H11.6072C12.9373 13.774 14.0155 12.6936 14.0155 11.3608V11.028C14.0127 11.028 14.01 11.0282 14.0072 11.0282H0.992888Z" fill="#666666"/>
<path d="M14.0071 8.15944H1.77373V1.94557C1.77373 1.36582 2.24445 0.894166 2.82303 0.894166H3.78467C3.94711 0.894166 4.1021 0.964039 4.20984 1.08586L4.80654 1.76036C4.80975 1.76399 4.81332 1.76715 4.81662 1.77067V2.09109H4.52428C4.28205 2.09109 4.08572 2.28782 4.08572 2.53054C4.08572 2.65189 4.13481 2.76175 4.21416 2.84129C4.29351 2.92084 4.40315 2.97 4.52428 2.97H8.1525C8.39473 2.97 8.59106 2.77327 8.59106 2.53054C8.59109 2.28785 8.39473 2.09109 8.1525 2.09109H7.86013V1.54013C7.86013 0.697994 7.17881 0.0152893 6.33839 0.0152893C5.80005 0.0152893 5.32737 0.29566 5.05684 0.718356L4.86621 0.502877C4.59208 0.193004 4.19788 0.0152893 3.78464 0.0152893H2.82303C1.76081 0.0152893 0.896617 0.881217 0.896617 1.9456V8.16418C0.393445 8.2127 0 8.63745 0 9.15436C0 9.70382 0.444522 10.1493 0.992866 10.1493H14.0071C14.5554 10.1493 15 9.70385 15 9.15436C15 8.6049 14.5555 8.15944 14.0071 8.15944V8.15944Z" fill="#666666"/>
</g>
<defs>
<clipPath id="clip0_183_1592">
<rect width="15" height="15" fill="white"/>
</clipPath>
</defs>
</svg>
