<svg width="15" height="15" viewBox="0 0 15 15" fill="none" xmlns="http://www.w3.org/2000/svg">
<g clip-path="url(#clip0_107_611)">
<path d="M8.29546 5.6113C8.14007 5.54338 7.95578 5.57055 7.8281 5.68293C7.68619 5.80786 7.64025 6.017 7.71715 6.18976C7.78685 6.34641 7.94619 6.4507 8.11782 6.4507C8.33628 6.4507 8.52635 6.28256 8.5531 6.06585C8.57643 5.87689 8.47033 5.6877 8.29546 5.6113Z" fill="#333333"/>
<path d="M5.9509 6.15974C6.01168 6.33207 6.18088 6.45071 6.36343 6.45071C6.57058 6.45071 6.75238 6.3002 6.79351 6.09782C6.83009 5.9178 6.74542 5.73045 6.58879 5.63602C6.43191 5.5414 6.22704 5.55737 6.08542 5.673C5.943 5.78928 5.89008 5.98724 5.9509 6.15974Z" fill="#333333"/>
<path d="M4.60955 6.45071C4.81646 6.45071 4.99826 6.29999 5.03934 6.09782C5.07589 5.91792 4.99121 5.73042 4.83462 5.63601C4.6775 5.54126 4.47316 5.55754 4.33124 5.673C4.18868 5.78898 4.136 5.9875 4.19675 6.15977C4.25759 6.3323 4.42691 6.45071 4.60955 6.45071Z" fill="#333333"/>
<path d="M8.29533 3.8571C8.14029 3.78874 7.95548 3.81678 7.82803 3.9287C7.68574 4.05363 7.64057 4.26253 7.71702 4.43541C7.78634 4.59215 7.94627 4.69647 8.11769 4.69647C8.33612 4.69647 8.52622 4.52841 8.55297 4.31162C8.57636 4.12219 8.47005 3.93411 8.29533 3.8571Z" fill="#333333"/>
<path d="M6.36342 4.69645C6.57059 4.69645 6.75236 4.54597 6.7935 4.34356C6.83007 4.16358 6.7454 3.9762 6.58878 3.88176C6.43186 3.78715 6.22706 3.80308 6.0854 3.91875C5.94302 4.03502 5.89007 4.23302 5.95091 4.40552C6.01167 4.57784 6.18086 4.69645 6.36342 4.69645Z" fill="#333333"/>
<path d="M4.60956 4.6973C4.81653 4.6973 4.99827 4.54655 5.03935 4.3444C5.07589 4.16454 4.99122 3.97701 4.83463 3.8826C4.67774 3.78802 4.47285 3.80395 4.33125 3.91959C4.18887 4.03586 4.13592 4.23386 4.19676 4.40636C4.25757 4.57886 4.42686 4.6973 4.60956 4.6973Z" fill="#333333"/>
<path d="M0.992766 11.0057C0.989959 11.0057 0.987182 11.0055 0.984375 11.0055V11.3377C0.984375 12.6678 2.06261 13.746 3.3927 13.746H3.99765C3.99548 13.7636 3.99405 13.7814 3.99405 13.7996V14.5462C3.99405 14.7884 4.19041 14.9847 4.43261 14.9847C4.67481 14.9847 4.87117 14.7884 4.87117 14.5462V13.7996C4.87117 13.7814 4.86974 13.7636 4.86757 13.746H10.1322C10.1301 13.7636 10.1286 13.7814 10.1286 13.7996V14.5462C10.1286 14.7884 10.325 14.9847 10.5672 14.9847C10.8094 14.9847 11.0057 14.7884 11.0057 14.5462V13.7996C11.0057 13.7814 11.0043 13.7636 11.0021 13.746H11.6071C12.9372 13.746 14.0154 12.6678 14.0154 11.3377V11.0055C14.0126 11.0055 14.0099 11.0057 14.007 11.0057H0.992766Z" fill="#333333"/>
<path d="M14.0071 8.14285H1.77373V1.94164C1.77373 1.36307 2.24445 0.892378 2.82303 0.892378H3.78467C3.94711 0.892378 4.1021 0.962109 4.20984 1.08368L4.80654 1.7568C4.80975 1.76043 4.81332 1.76359 4.81662 1.7671V2.08686H4.52428C4.28205 2.08686 4.08572 2.28319 4.08572 2.52542C4.08572 2.64652 4.13481 2.75616 4.21416 2.83554C4.29351 2.91492 4.40315 2.96398 4.52428 2.96398H8.1525C8.39473 2.96398 8.59106 2.76765 8.59106 2.52542C8.59109 2.28322 8.39473 2.08686 8.1525 2.08686H7.86013V1.53703C7.86013 0.696606 7.17881 0.0152912 6.33839 0.0152912C5.80005 0.0152912 5.32737 0.295091 5.05684 0.716925L4.86621 0.501886C4.59208 0.192644 4.19788 0.0152912 3.78464 0.0152912H2.82303C1.76081 0.0152912 0.896617 0.879455 0.896617 1.94167V8.14759C0.393445 8.196 0 8.61989 0 9.13575C0 9.68409 0.444522 10.1286 0.992866 10.1286H14.0071C14.5554 10.1286 15 9.68412 15 9.13575C15 8.5874 14.5555 8.14285 14.0071 8.14285Z" fill="#333333"/>
</g>
<defs>
<clipPath id="clip0_107_611">
<rect width="15" height="15" fill="white"/>
</clipPath>
</defs>
</svg>
