<svg width="35" height="35" viewBox="0 0 35 35" fill="none" xmlns="http://www.w3.org/2000/svg">
<path fill-rule="evenodd" clip-rule="evenodd" d="M3.11111 5.70914C3.11111 5.21394 3.51374 4.8125 4.01042 4.8125H30.9896C31.4863 4.8125 31.8889 5.21394 31.8889 5.70914V17.6345H32.7882C33.2849 17.6345 33.6875 18.0359 33.6875 18.5311V25.7043C33.6875 26.1995 33.2849 26.6009 32.7882 26.6009H29.101V29.2909C29.101 29.7861 28.6984 30.1875 28.2017 30.1875H24.6045C24.1078 30.1875 23.7052 29.7861 23.7052 29.2909V26.6009H11.1149V29.2909C11.1149 29.7861 10.7123 30.1875 10.2156 30.1875H6.61837C6.1217 30.1875 5.71906 29.7861 5.71906 29.2909V26.6009H2.21181C1.71513 26.6009 1.3125 26.1995 1.3125 25.7043V18.5311C1.3125 18.0359 1.71513 17.6345 2.21181 17.6345H3.11111V5.70914ZM30.0903 14.6803V6.60579H4.90972V14.7323C5.36967 14.372 5.8988 14.0947 6.47413 13.9343C6.33548 13.6109 6.25868 13.2552 6.25868 12.8823C6.25868 11.4008 7.47069 10.1924 8.9566 10.1924H14.3524C15.8383 10.1924 17.0503 11.4008 17.0503 12.8823C17.0503 13.1964 16.9959 13.4983 16.8958 13.7789H18.1042C18.0041 13.4983 17.9497 13.1964 17.9497 12.8823C17.9497 11.4008 19.1617 10.1924 20.6476 10.1924H26.0434C27.5293 10.1924 28.7413 11.4008 28.7413 12.8823C28.7413 13.2516 28.666 13.604 28.5299 13.9249C29.1019 14.0747 29.6302 14.3346 30.0903 14.6803ZM26.0434 13.7789C26.536 13.7789 26.9427 13.3734 26.9427 12.8823C26.9427 12.3912 26.536 11.9856 26.0434 11.9856H20.6476C20.155 11.9856 19.7483 12.3912 19.7483 12.8823C19.7483 13.3734 20.155 13.7789 20.6476 13.7789H26.0434ZM7.60764 15.5722C6.48567 15.5722 5.48809 16.3845 5.09153 17.3655H29.9347C29.5616 16.3243 28.5594 15.5722 27.3924 15.5722H7.60764ZM14.3524 13.7789C14.845 13.7789 15.2517 13.3734 15.2517 12.8823C15.2517 12.3912 14.845 11.9856 14.3524 11.9856H8.9566C8.46403 11.9856 8.05729 12.3912 8.05729 12.8823C8.05729 13.3734 8.46403 13.7789 8.9566 13.7789H14.3524ZM31.8889 24.8076V19.4278H3.11111V24.8076H31.8889ZM7.51768 26.6009V28.3942H9.31629V26.6009H7.51768ZM25.5038 26.6009V28.3942H27.3024V26.6009H25.5038Z" fill="#7C829A"/>
</svg>
