<svg width="36" height="35" viewBox="0 0 36 35" fill="none" xmlns="http://www.w3.org/2000/svg">
<g clip-path="url(#clip0_170:742)">
<path d="M13.3358 18.2334H10.6014V20.2842H13.3358V18.2334Z" fill="#7C829A"/>
<path d="M26.3241 18.2334H23.5897V20.2842H26.3241V18.2334Z" fill="#7C829A"/>
<path d="M18.4627 6.51245L0.962738 14.4274V16.1828H3.76547V22.3351H0.962738V24.3859H3.76547V28.4875H5.81625V24.3859H31.1092V28.4875H33.16V24.3859H35.9627V22.3351H33.16V16.1828H35.9627V16.1827V14.4273L18.4627 6.51245ZM18.4627 8.76318L30.3331 14.1319H6.59241L18.4627 8.76318ZM19.4881 22.335H17.4373V20.2843H19.4881V22.335ZM31.1092 22.335H21.5389V18.2335H15.3866V22.335H5.81625V16.1827H31.1092V22.335Z" fill="#7C829A"/>
<path d="M21.5389 26.4365H15.3866V28.4873H21.5389V26.4365Z" fill="#7C829A"/>
</g>
<defs>
<clipPath id="clip0_170:742">
<rect width="35" height="35" fill="white" transform="translate(0.962738)"/>
</clipPath>
</defs>
</svg>
