<svg width="49" height="44" viewBox="0 0 49 44" fill="none" xmlns="http://www.w3.org/2000/svg">
<path d="M28.5833 37.9666C31.0139 35.5139 33.1528 32.6198 35 29.2843C36.75 26.0468 37.9653 22.7113 38.6458 19.2776C38.2569 19.3757 37.5764 19.4248 36.6042 19.4248C34.4653 19.4248 32.6667 18.5418 31.2083 16.7759C29.6528 15.1081 28.875 12.9498 28.875 10.301C28.875 7.25976 29.7986 4.75809 31.6458 2.79599C33.4931 0.932002 35.9236 2.67152e-06 38.9375 2.93501e-06C41.9514 3.19849e-06 44.3819 1.12821 46.2292 3.38462C48.0764 5.64103 49 8.82944 49 12.9498C49 18.2475 47.6389 23.7414 44.9167 29.4314C42.1944 35.2196 38.5 40.0758 33.8333 44L28.5833 37.9666ZM8.02083 19.4247C5.78472 19.4247 3.9375 18.5418 2.47917 16.7759C0.923613 15.1081 0.145839 12.9498 0.145839 10.301C0.145839 7.25976 1.06944 4.75808 2.91667 2.79599C4.76389 0.931999 7.19445 1.59939e-07 10.2083 4.23422e-07C13.3194 6.95404e-07 15.7986 1.12821 17.6458 3.38462C19.4931 5.64103 20.4167 8.82943 20.4167 12.9498C20.4167 18.1494 19.0556 23.6433 16.3333 29.4314C13.6111 35.2196 9.91667 40.0758 5.25 44L-3.28724e-06 37.9666C2.43055 35.5139 4.52083 32.6198 6.27083 29.2843C8.02083 26.0468 9.23611 22.7113 9.91667 19.2776C9.52778 19.3757 8.89583 19.4247 8.02083 19.4247Z" fill="#FD8B0E"/>
</svg>
