<svg width="45" height="25" viewBox="0 0 45 25" fill="none" xmlns="http://www.w3.org/2000/svg">
<path d="M2.48539 13.7563C1.99446 13.251 1.60145 12.8211 1.31675 12.5C1.60145 12.1789 1.99446 11.749 2.48539 11.2437C3.59884 10.0977 5.21022 8.56962 7.19894 7.04329C11.2003 3.97226 16.6097 1 22.5 1C28.3903 1 33.7997 3.97226 37.8011 7.04329C39.7898 8.56962 41.4012 10.0977 42.5146 11.2437C43.0055 11.749 43.3985 12.1789 43.6833 12.5C43.3985 12.8211 43.0055 13.251 42.5146 13.7563C41.4012 14.9023 39.7898 16.4304 37.8011 17.9567C33.7997 21.0277 28.3903 24 22.5 24C16.6097 24 11.2003 21.0277 7.19894 17.9567C5.21022 16.4304 3.59884 14.9023 2.48539 13.7563Z" stroke="white" stroke-width="2"/>
<circle cx="22.5" cy="12.4999" r="5.66667" stroke="white" stroke-width="2"/>
</svg>
