<svg width="20" height="20" fill="none" xmlns="http://www.w3.org/2000/svg"><g clip-path="url(#a)"><path d="M19.5 10.055C19.5 5.003 15.248.91 10 .91S.5 5.003.5 10.055c0 4.565 3.474 8.35 8.016 9.036v-6.392H6.102v-2.644h2.414V8.04c0-2.292 1.417-3.558 3.588-3.558 1.04 0 2.127.179 2.127.179v2.25h-1.198c-1.18 0-1.548.704-1.548 1.428v1.716h2.634l-.421 2.644h-2.213v6.392c4.541-.687 8.015-4.47 8.015-9.036Z" fill="#fff"/></g><defs><clipPath id="a"><path fill="#fff" transform="translate(.5)" d="M0 0h19v20H0z"/></clipPath></defs></svg>