<svg width="15" height="15" viewBox="0 0 15 15" fill="none" xmlns="http://www.w3.org/2000/svg">
<path d="M15 7.5C15 8.0654 14.54 8.52539 13.9746 8.52539H13.7758L14.2707 9.02033L13.6492 9.64181L12.5329 8.52539H11.0158C10.9405 8.78317 10.8376 9.0293 10.7104 9.2603L11.7838 10.3337H13.3626V11.2126H12.6627L12.8033 11.3532C13.2031 11.753 13.2031 12.4035 12.8033 12.8033C12.4035 13.2031 11.753 13.2031 11.3532 12.8033L11.2126 12.6627V13.3626H10.3337V11.7838L9.2603 10.7104C9.0293 10.8376 8.78317 10.9405 8.52539 11.0158V12.5328L9.64178 13.6492L9.0203 14.2707L8.52539 13.7758V13.9746C8.52539 14.54 8.0654 15 7.5 15C6.9346 15 6.47461 14.54 6.47461 13.9746V13.7758L5.97967 14.2707L5.35819 13.6492L6.47461 12.5328V11.0158C6.2168 10.9405 5.9707 10.8376 5.7397 10.7104L4.66635 11.7838V13.3626H3.78744V12.6627L3.64682 12.8033C3.24703 13.2031 2.59649 13.2031 2.19671 12.8033C1.79692 12.4035 1.79692 11.753 2.19671 11.3532L2.3373 11.2126H1.63737V10.3337H3.21621L4.28959 9.2603C4.16241 9.0293 4.05952 8.7832 3.9842 8.52539H2.46715L1.35076 9.64178L0.729287 9.0203L1.22423 8.52539H1.02539C0.45999 8.52539 0 8.0654 0 7.5C0 6.9346 0.45999 6.47461 1.02539 6.47461H1.22423L0.729316 5.97967L1.35079 5.35819L2.46715 6.47461H3.9842C4.05952 6.21683 4.16241 5.9707 4.28959 5.7397L3.21621 4.66632H1.63737V3.78741H2.3373L2.19671 3.64682C1.79692 3.24703 1.79692 2.59649 2.19671 2.19671C2.39663 1.99679 2.65916 1.89686 2.92178 1.89686C3.18431 1.89686 3.44695 1.99682 3.64682 2.19671L3.78744 2.33733V1.63737H4.66635V3.21624L5.7397 4.28959C5.9707 4.16241 6.21683 4.05952 6.47461 3.9842V2.46718L5.35822 1.35079L5.9797 0.729317L6.47461 1.22423V1.02539C6.47461 0.459991 6.9346 0 7.5 0C8.0654 0 8.52539 0.459991 8.52539 1.02539V1.22423L9.02033 0.729287L9.64181 1.35076L8.52539 2.46718V3.9842C8.7832 4.05952 9.0293 4.16241 9.2603 4.28959L10.3337 3.21624V1.63737H11.2126V2.33733L11.3532 2.19671C11.5531 1.99682 11.8157 1.89686 12.0782 1.89686C12.3408 1.89686 12.6034 1.99682 12.8033 2.19671C13.2031 2.59649 13.2031 3.24703 12.8033 3.64682L12.6627 3.78741H13.3626V4.66632H11.7838L10.7104 5.7397C10.8376 5.9707 10.9405 6.2168 11.0158 6.47461H12.5329L13.6492 5.35822L14.2707 5.9797L13.7758 6.47461H13.9746C14.54 6.47461 15 6.9346 15 7.5ZM7.5 6.47461C6.9346 6.47461 6.47461 6.9346 6.47461 7.5C6.47461 8.0654 6.9346 8.52539 7.5 8.52539C8.0654 8.52539 8.52539 8.0654 8.52539 7.5C8.52539 6.9346 8.0654 6.47461 7.5 6.47461Z" fill="#666666"/>
</svg>
