<svg width="20" height="19" fill="none" xmlns="http://www.w3.org/2000/svg"><g clip-path="url(#a)"><path d="M5.508 9.496c0 2.556 2.004 4.617 4.488 4.617 2.484 0 4.488-2.061 4.488-4.617 0-2.555-2.004-4.616-4.488-4.616-2.484 0-4.488 2.06-4.488 4.616Zm7.406 0c0 1.652-1.309 3.002-2.918 3.002-1.61 0-2.918-1.346-2.918-3.002 0-1.655 1.309-3.001 2.918-3.001 1.61 0 2.918 1.35 2.918 3.001Zm-7.59-5.882c.582 0 1.047.482 1.047 1.077a1.06 1.06 0 0 1-1.047 1.077c-.578 0-1.047-.483-1.047-1.077 0-.595.47-1.077 1.047-1.077ZM6.387.556C4.984.625 3.742.954 2.719 2.011 1.695 3.064 1.375 4.34 1.305 5.784c-.082 1.486-.082 5.942 0 7.429.066 1.438.386 2.716 1.41 3.772 1.023 1.057 2.265 1.383 3.668 1.455 1.445.084 5.777.084 7.222 0 1.403-.068 2.645-.398 3.668-1.455 1.024-1.056 1.344-2.33 1.415-3.772.082-1.487.082-5.943 0-7.43-.067-1.442-.387-2.72-1.415-3.772C16.25.958 15.008.629 13.605.556 12.16.472 7.832.472 6.387.556Zm8.77 1.92a2.999 2.999 0 0 1 1.663 1.713c.457 1.185.352 3.997.352 5.307 0 1.31.101 4.127-.352 5.308a2.998 2.998 0 0 1-1.664 1.711c-1.152.47-3.886.362-5.16.362-1.273 0-4.012.104-5.16-.362a2.998 2.998 0 0 1-1.664-1.711c-.457-1.186-.352-3.998-.352-5.308 0-1.31-.101-4.126.352-5.307a2.998 2.998 0 0 1 1.664-1.712c1.152-.47 3.887-.362 5.16-.362 1.274 0 4.012-.108 5.16.362Z" fill="#fff"/></g><defs><clipPath id="a"><path fill="#fff" transform="rotate(-90 9.25 9.25)" d="M0 0h18v20H0z"/></clipPath></defs></svg>