<svg width="9" height="11" viewBox="0 0 9 11" fill="none" xmlns="http://www.w3.org/2000/svg">
<g clip-path="url(#clip0_182_1150)">
<path d="M4.08892 10.7781C1.06187 6.25262 0.5 5.78817 0.5 4.125C0.5 1.84682 2.29085 0 4.5 0C6.70915 0 8.5 1.84682 8.5 4.125C8.5 5.78817 7.93812 6.25262 4.91108 10.7781C4.71244 11.074 4.28754 11.074 4.08892 10.7781ZM4.5 5.84375C5.42048 5.84375 6.16667 5.07424 6.16667 4.125C6.16667 3.17576 5.42048 2.40625 4.5 2.40625C3.57952 2.40625 2.83333 3.17576 2.83333 4.125C2.83333 5.07424 3.57952 5.84375 4.5 5.84375Z" fill="#BEC3D3"/>
</g>
<defs>
<clipPath id="clip0_182_1150">
<rect width="8" height="11" fill="white" transform="translate(0.5)"/>
</clipPath>
</defs>
</svg>
