<svg width="14" height="14" viewBox="0 0 14 14" fill="none" xmlns="http://www.w3.org/2000/svg">
<path d="M9.62877 2.39241C8.40731 2.39241 7.41357 3.38614 7.41357 4.6076C7.41357 5.82906 8.40731 6.82279 9.62877 6.82279C10.8502 6.82279 11.844 5.82906 11.844 4.6076C11.844 3.38614 10.8502 2.39241 9.62877 2.39241Z" fill="#767C90"/>
<path d="M12.8844 8.6264C12.168 7.899 11.2183 7.49841 10.2102 7.49841H9.04724C8.03918 7.49841 7.08945 7.899 6.37306 8.6264C5.66018 9.35024 5.26758 10.3057 5.26758 11.3168C5.26758 11.4774 5.39775 11.6076 5.55832 11.6076H13.6991C13.8597 11.6076 13.9899 11.4774 13.9899 11.3168C13.9899 10.3057 13.5973 9.35024 12.8844 8.6264Z" fill="#767C90"/>
<path d="M4.34166 2.36287C3.1202 2.36287 2.12646 3.3566 2.12646 4.57806C2.12646 5.79951 3.1202 6.79325 4.34166 6.79325C5.56311 6.79325 6.55685 5.79951 6.55685 4.57806C6.55685 3.3566 5.56311 2.36287 4.34166 2.36287Z" fill="#767C90"/>
<path fill-rule="evenodd" clip-rule="evenodd" d="M6.11546 7.68674C5.62884 8.07981 5.20836 8.62726 4.87876 9.30847C4.54505 9.9982 4.32632 10.7791 4.22837 11.6076H0.290744C0.130176 11.6076 0 11.4774 0 11.3168C0 10.3057 0.392601 9.35024 1.10548 8.6264C1.82188 7.899 2.7716 7.49841 3.77967 7.49841H4.94264C5.34671 7.49841 5.74141 7.56277 6.11546 7.68674Z" fill="#767C90"/>
</svg>
