<svg width="15" height="15" viewBox="0 0 15 15" fill="none" xmlns="http://www.w3.org/2000/svg">
<g clip-path="url(#clip0_137_787)">
<path d="M1.56248 5.76562H3.12497C3.02873 5.76562 2.93809 5.71902 2.87873 5.63963C2.81935 5.56023 2.79872 5.45653 2.82187 5.35809L3.01625 4.54239C3.12063 4.10335 3.49499 3.79688 3.92563 3.79688H5.9375C6.45439 3.79688 6.875 4.23852 6.875 4.78125V5.43749C6.875 5.61861 6.73499 5.76562 6.56249 5.76562H8.43749C8.26499 5.76562 8.12498 5.61861 8.12498 5.43749V4.78125C8.12498 4.23852 8.5456 3.79688 9.06248 3.79688H11.0744C11.505 3.79688 11.8793 4.10335 11.9837 4.54239L12.1781 5.35809C12.2019 5.45589 12.1806 5.56023 12.1213 5.63963C12.0619 5.71902 11.9713 5.76562 11.875 5.76562H13.4375C13.61 5.76562 13.75 5.61861 13.75 5.43749V3.46874C13.75 2.56444 13.0488 1.82812 12.1875 1.82812H2.81249C1.95125 1.82812 1.25 2.56444 1.25 3.46874V5.43749C1.25 5.61861 1.38998 5.76562 1.56248 5.76562Z" fill="#767C90"/>
<path d="M13.4375 6.42186H1.56249C0.70125 6.42186 0 7.15817 0 8.06247V12.6562C0 12.8373 0.14001 12.9844 0.31251 12.9844C0.48501 12.9844 0.62502 12.8373 0.62502 12.6562V11.6718H14.375V12.6562C14.375 12.8373 14.515 12.9844 14.6875 12.9844C14.86 12.9844 15 12.8373 15 12.6562V8.06247C15 7.15817 14.2987 6.42186 13.4375 6.42186ZM14.375 11.0156H0.62499V10.3594H14.375V11.0156H14.375Z" fill="#767C90"/>
</g>
<defs>
<clipPath id="clip0_137_787">
<rect width="15" height="15" fill="white"/>
</clipPath>
</defs>
</svg>
