<svg width="47" height="46" viewBox="0 0 47 46" fill="none" xmlns="http://www.w3.org/2000/svg">
<g clip-path="url(#clip0_71:200)">
<path d="M20.6083 37.5198H11.493L13.2634 34.4535H15.5578C16.3049 34.4535 16.9106 33.8478 16.9106 33.1007C16.9106 32.3535 16.3049 31.7478 15.5578 31.7478H12.4824C12.1393 31.7478 11.7974 31.8819 11.5418 32.1295C11.3418 32.3231 11.5244 32.0544 8.36893 37.5198H5.68279L3.12065 30.4739C2.86533 29.7717 2.089 29.4096 1.38698 29.6648C0.684781 29.9201 0.322588 30.6964 0.577909 31.3985C3.73203 40.0722 3.47888 39.4321 3.61894 39.6364C3.81501 39.9234 4.1248 40.1336 4.48618 40.2017C4.66719 40.2357 4.58674 40.2256 6.80679 40.2256L4.6459 43.9683C4.12282 44.8744 4.78569 45.9978 5.81617 45.9978C6.28371 45.9978 6.73852 45.7551 6.98897 45.3211L9.93088 40.2256H15.4982L18.4401 45.3211C18.8155 45.9714 19.6441 46.1882 20.288 45.8163C20.935 45.4427 21.1567 44.6154 20.7831 43.9683L18.6222 40.2256H20.6082C21.3553 40.2256 21.961 39.6199 21.961 38.8727C21.961 38.1256 21.3554 37.5198 20.6083 37.5198Z" fill="#FD8B0E"/>
<path d="M24.9544 22.9501L19.3032 19.064C18.6873 18.641 18.5321 17.7986 18.9551 17.1827C19.3781 16.5667 20.2204 16.4106 20.8364 16.8345L24.9706 19.6772L25.0274 8.56254C25.031 7.83112 25.6206 7.21695 26.3875 7.21695C27.1342 7.22055 27.7367 7.82932 27.7331 8.57697L27.6726 20.4601L32.6383 15.4943C33.1668 14.9667 34.0236 14.9667 34.5521 15.4943C35.0797 16.0228 35.0797 16.8796 34.5521 17.4081L27.6528 24.3075C27.6528 24.5869 27.6255 29.7391 27.6239 30.0344C29.3835 29.7764 31.0204 28.9774 32.3092 27.7418C37.8911 28.9778 43.1909 24.8981 43.5781 19.3922C44.0336 14.8366 40.67 10.2112 35.6677 9.47975C35.7441 4.14246 31.4669 0.00195312 26.3802 0.00195312C21.3012 0.00195312 17.0163 4.13398 17.0927 9.47975C12.6086 10.1354 9.15445 14.0072 9.15445 18.6707C9.15445 24.5758 14.6396 29.0289 20.4522 27.7418C21.7026 28.9395 23.2498 29.7077 24.9183 29.9965C24.944 25.0768 24.9246 28.8074 24.9544 22.9501Z" fill="#FD8B0E"/>
<path d="M44.7208 24.634C42.4178 28.6402 37.9577 31.0849 33.1073 30.6053C30.7545 32.3594 27.8299 33.1133 24.9048 32.7347L24.8444 44.6376C24.8408 45.3853 25.4432 45.994 26.19 45.9976C26.9572 45.9976 27.5465 45.3831 27.55 44.652L27.605 33.8485C28.9116 34.7671 30.5131 35.1265 32.09 34.8595C32.7592 35.4376 33.5529 35.847 34.4069 36.0581V44.6448C34.4069 45.3916 35.013 45.9976 35.7598 45.9976C36.5065 45.9976 37.1126 45.3916 37.1126 44.6448V36.059C37.9666 35.847 38.7603 35.4385 39.4304 34.8595C45.2802 35.8526 48.8305 28.7404 44.7208 24.634Z" fill="#FD8B0E"/>
</g>
<defs>
<clipPath id="clip0_71:200">
<rect width="46" height="46" fill="white" transform="translate(0.496094)"/>
</clipPath>
</defs>
</svg>
