<svg width="15" height="15" viewBox="0 0 15 15" fill="none" xmlns="http://www.w3.org/2000/svg">
<path d="M10.3163 2.56329C9.00759 2.56329 7.94287 3.628 7.94287 4.9367C7.94287 6.24541 9.00759 7.31012 10.3163 7.31012C11.625 7.31012 12.6897 6.24541 12.6897 4.9367C12.6897 3.628 11.625 2.56329 10.3163 2.56329Z" fill="#333333"/>
<path d="M13.8047 9.24257C13.0371 8.46322 12.0196 8.03402 10.9395 8.03402H9.69344C8.61337 8.03402 7.59581 8.46322 6.82825 9.24257C6.06444 10.0181 5.6438 11.0418 5.6438 12.1252C5.6438 12.2972 5.78327 12.4367 5.95531 12.4367H14.6776C14.8497 12.4367 14.9891 12.2972 14.9891 12.1252C14.9891 11.0418 14.5685 10.0181 13.8047 9.24257Z" fill="#333333"/>
<path d="M4.65174 2.53164C3.34304 2.53164 2.27832 3.59635 2.27832 4.90506C2.27832 6.21376 3.34304 7.27847 4.65174 7.27847C5.96044 7.27847 7.02516 6.21376 7.02516 4.90506C7.02516 3.59635 5.96044 2.53164 4.65174 2.53164Z" fill="#333333"/>
<path fill-rule="evenodd" clip-rule="evenodd" d="M6.55227 8.2358C6.0309 8.65694 5.58038 9.24349 5.22724 9.97337C4.86969 10.7124 4.63534 11.5491 4.5304 12.4367H0.311511C0.139474 12.4367 0 12.2972 0 12.1252C0 11.0418 0.420644 10.0181 1.18445 9.24257C1.95201 8.46322 2.96957 8.03402 4.04964 8.03402H5.29569C5.72862 8.03402 6.15151 8.10297 6.55227 8.2358Z" fill="#333333"/>
</svg>
