<svg width="36" height="35" viewBox="0 0 36 35" fill="none" xmlns="http://www.w3.org/2000/svg">
<path fill-rule="evenodd" clip-rule="evenodd" d="M18.5928 1.43367L17.9369 2.12508L17.2956 1.41973C17.6638 1.07696 18.2319 1.08306 18.5928 1.43367ZM17.9369 12.093C17.2956 12.7983 17.2953 12.7981 17.2951 12.7979L17.2934 12.7963L17.2904 12.7935L17.2818 12.7854L17.2548 12.7594C17.2326 12.7379 17.202 12.7078 17.1644 12.6696C17.0892 12.5933 16.9853 12.4842 16.8622 12.3456C16.6169 12.0692 16.2912 11.6704 15.9648 11.175C15.3222 10.1997 14.6217 8.76606 14.6217 7.10905C14.6217 5.45203 15.3222 4.01838 15.9648 3.04309C16.2912 2.54764 16.6169 2.14888 16.8622 1.87249C16.9853 1.73385 17.0892 1.62478 17.1644 1.54847C17.202 1.51029 17.2326 1.48021 17.2548 1.45864L17.2818 1.43268L17.2904 1.42456L17.2934 1.42173L17.2946 1.42063C17.2948 1.42041 17.2956 1.41973 17.9369 2.12508C18.5928 1.43367 18.5926 1.43346 18.5928 1.43367L18.5948 1.43561L18.5977 1.43841L18.606 1.44656L18.6323 1.47294C18.6541 1.49494 18.6842 1.52573 18.7214 1.56485C18.7957 1.64303 18.8987 1.75483 19.0207 1.89648C19.2641 2.17886 19.5877 2.5848 19.9122 3.08391C20.5483 4.06223 21.2521 5.49643 21.2521 7.10905C21.2521 8.72166 20.5483 10.1558 19.9122 11.1342C19.5877 11.6333 19.2641 12.0392 19.0207 12.3216C18.8987 12.4632 18.7957 12.575 18.7214 12.6532C18.6842 12.6923 18.6541 12.7231 18.6323 12.7451L18.606 12.7715L18.5977 12.7797L18.5948 12.7825L18.5937 12.7835C18.5935 12.7837 18.5928 12.7844 17.9369 12.093ZM17.9369 12.093L17.2951 12.7979C17.6633 13.1407 18.2319 13.135 18.5928 12.7844L17.9369 12.093ZM17.9272 10.65C18.0554 10.4824 18.1926 10.2913 18.3296 10.0806C18.8775 9.23788 19.3577 8.1801 19.3577 7.10905C19.3577 6.03799 18.8775 4.9802 18.3296 4.13747C18.1926 3.9268 18.0554 3.73569 17.9272 3.56808C17.8038 3.72666 17.6723 3.90712 17.541 4.1064C16.9995 4.92822 16.5161 5.98655 16.5161 7.10905C16.5161 8.23154 16.9995 9.28986 17.541 10.1117C17.6723 10.311 17.8038 10.4914 17.9272 10.65Z" fill="#7C829A"/>
<path fill-rule="evenodd" clip-rule="evenodd" d="M22.8087 9.72897C21.866 9.90439 20.8402 10.2812 20.1391 11.0279C19.4296 11.7837 19.0715 12.879 18.9067 13.8799C18.8609 14.158 18.8316 14.4191 18.8131 14.6499C19.0228 14.6298 19.2573 14.5991 19.506 14.5528C20.4487 14.3774 21.4745 14.0006 22.1756 13.2539C22.8851 12.4982 23.2431 11.4028 23.408 10.4019C23.4538 10.1238 23.4831 9.86273 23.5016 9.63186C23.2919 9.65199 23.0573 9.68269 22.8087 9.72897ZM24.4725 8.64255C25.4182 8.58787 25.4182 8.58815 25.4182 8.58844L25.4183 8.59064L25.4186 8.59465L25.4191 8.60633L25.4207 8.64399C25.4219 8.6753 25.4233 8.71887 25.4242 8.77352C25.4261 8.88273 25.4265 9.0367 25.4208 9.22581C25.4094 9.60275 25.3739 10.1262 25.2766 10.717C25.0863 11.8726 24.6392 13.413 23.549 14.5742C22.4504 15.7443 20.9661 16.2302 19.8486 16.4381C19.2783 16.5443 18.7722 16.5839 18.4074 16.5971C18.2243 16.6037 18.075 16.6038 17.9687 16.6021C17.9155 16.6012 17.873 16.5999 17.8423 16.5987L17.8052 16.5971L17.7935 16.5965L17.7894 16.5962L17.7878 16.5961C17.7875 16.5961 17.7865 16.5961 17.8421 15.6393C16.8965 15.6939 16.8964 15.6937 16.8964 15.6934L16.8963 15.6912L16.8961 15.6872L16.8955 15.6755L16.8939 15.6378C16.8927 15.6065 16.8914 15.5629 16.8904 15.5083C16.8885 15.3991 16.8882 15.2451 16.8939 15.056C16.9052 14.6791 16.9407 14.1557 17.0381 13.5648C17.2284 12.4092 17.6755 10.8688 18.7657 9.70764C19.8643 8.53746 21.3485 8.05164 22.466 7.84368C23.0363 7.73754 23.5424 7.69796 23.9072 7.68471C24.0903 7.67806 24.2397 7.67799 24.3459 7.67973C24.3991 7.68059 24.4416 7.68192 24.4724 7.68312L24.5095 7.68474L24.5212 7.68535L24.5253 7.68558L24.5268 7.68567C24.5272 7.68569 24.5281 7.68575 24.4725 8.64255ZM17.8421 15.6393L16.8964 15.6934C16.9239 16.1791 17.3066 16.5675 17.7865 16.5961L17.8421 15.6393ZM24.4725 8.64255L24.5281 7.68575C25.0081 7.71431 25.3908 8.10275 25.4182 8.58844L24.4725 8.64255Z" fill="#7C829A"/>
<path fill-rule="evenodd" clip-rule="evenodd" d="M13.2182 7.84368C14.3357 8.05164 15.82 8.53746 16.9186 9.70764C18.0087 10.8688 18.4558 12.4092 18.6462 13.5648C18.7435 14.1557 18.779 14.6791 18.7904 15.056C18.7961 15.2451 18.7957 15.3991 18.7938 15.5083C18.7928 15.5629 18.7915 15.6065 18.7903 15.6378L18.7887 15.6755L18.7881 15.6872L18.7879 15.6912L18.7878 15.6927C18.7878 15.693 18.7878 15.6939 17.8421 15.6393C17.8977 16.5961 17.8974 16.5961 17.8971 16.5961L17.8949 16.5962L17.8908 16.5965L17.8791 16.5971L17.8423 16.5987C17.8116 16.5999 17.7687 16.6012 17.7155 16.6021C17.6093 16.6038 17.4599 16.6037 17.2768 16.5971C16.912 16.5839 16.4059 16.5443 15.8356 16.4381C14.7181 16.2302 13.2339 15.7443 12.1353 14.5742C11.0451 13.413 10.598 11.8726 10.4077 10.717C10.3103 10.1262 10.2748 9.60275 10.2635 9.22581C10.2578 9.0367 10.2581 8.88273 10.26 8.77352C10.261 8.71887 10.2623 8.6753 10.2635 8.64399L10.2651 8.60633L10.2657 8.59465L10.2659 8.59064L10.266 8.5891C10.266 8.5888 10.2661 8.58787 11.2117 8.64255C11.1561 7.68575 11.1564 7.68573 11.1567 7.68571L11.159 7.68558L11.1631 7.68535L11.1748 7.68474L11.2119 7.68312C11.2426 7.68192 11.2851 7.68059 11.3383 7.67973C11.4446 7.67799 11.5939 7.67806 11.777 7.68471C12.1418 7.69796 12.6479 7.73754 13.2182 7.84368ZM11.2117 8.64255L11.1567 7.68571C10.6768 7.71427 10.2935 8.10217 10.2661 8.58787L11.2117 8.64255ZM12.1827 9.63186C12.2012 9.86273 12.2305 10.1238 12.2763 10.4019C12.4411 11.4028 12.7992 12.4982 13.5087 13.2539C14.2098 14.0006 15.2356 14.3774 16.1783 14.5528C16.4269 14.5991 16.6615 14.6298 16.8711 14.6499C16.8527 14.4191 16.8234 14.158 16.7776 13.8799C16.6127 12.879 16.2547 11.7837 15.5452 11.0279C14.8441 10.2812 13.8182 9.90439 12.8756 9.72897C12.6269 9.68269 12.3924 9.65199 12.1827 9.63186ZM17.8421 15.6393L17.8971 16.5961C18.3771 16.5675 18.7604 16.1796 18.7878 15.6939L17.8421 15.6393Z" fill="#7C829A"/>
<path fill-rule="evenodd" clip-rule="evenodd" d="M10.7858 21.9057C10.9656 21.6996 11.2242 21.5816 11.4959 21.5816H24.2831C24.5548 21.5816 24.8134 21.6996 24.9932 21.9057C25.173 22.1118 25.2567 22.3861 25.223 22.6589L23.8022 34.1604C23.7429 34.64 23.34 34.9999 22.8623 34.9999H12.9167C12.439 34.9999 12.036 34.64 11.9768 34.1604L10.556 22.6589C10.5223 22.3861 10.606 22.1118 10.7858 21.9057ZM12.5688 23.4985L13.7528 33.083H22.0261L23.2101 23.4985H12.5688Z" fill="#7C829A"/>
<path fill-rule="evenodd" clip-rule="evenodd" d="M17.7474 15.256C18.2705 15.256 18.6946 15.6851 18.6946 16.2144V21.9651C18.6946 22.4945 18.2705 22.9236 17.7474 22.9236C17.2243 22.9236 16.8002 22.4945 16.8002 21.9651V16.2144C16.8002 15.6851 17.2243 15.256 17.7474 15.256Z" fill="#7C829A"/>
<path fill-rule="evenodd" clip-rule="evenodd" d="M11.117 26.2782C11.117 25.7488 11.5411 25.3197 12.0642 25.3197H23.4306C23.9537 25.3197 24.3778 25.7488 24.3778 26.2782C24.3778 26.8075 23.9537 27.2366 23.4306 27.2366H12.0642C11.5411 27.2366 11.117 26.8075 11.117 26.2782Z" fill="#7C829A"/>
</svg>
