<svg width="47" height="46" viewBox="0 0 47 46" fill="none" xmlns="http://www.w3.org/2000/svg">
<g clip-path="url(#clip0_71:193)">
<path d="M37.9742 25.5431L36.0441 8.81586H40.291V2.6125C39.9826 2.59391 39.6739 2.58438 39.3645 2.58447C36.3018 2.58456 33.2341 3.51481 30.9861 5.71418L31.127 8.00412H27.2832V10.7099H31.2935L32.1338 24.3649C32.236 26.0241 30.9178 27.4258 29.2555 27.4258H17.2958C17.2958 25.7128 17.9905 24.1619 19.1129 23.0396C20.2352 21.9173 21.786 21.2226 23.499 21.2226V18.1209H16.0121C11.729 18.1209 7.85229 19.8568 5.04557 22.6627C2.23984 25.4694 0.503876 29.346 0.503876 33.6291H30.7676C35.1035 33.6291 38.4712 29.8505 37.9742 25.5431Z" fill="#FD8B0E"/>
<path d="M40.6329 24.9795L40.6622 25.2331C40.9875 28.0519 40.0913 30.8835 38.2033 33.0018C38.0081 33.2209 37.8035 33.4297 37.5914 33.6292H46.5039C46.5039 29.7032 44.0722 26.3458 40.6329 24.9795Z" fill="#FD8B0E"/>
<path d="M9.72311 16.531C11.7332 15.7905 13.8446 15.4151 16.0123 15.4151H23.4992V13.5178C23.4992 11.8989 22.1869 10.5864 20.5679 10.5864H10.9269C9.30803 10.5864 7.99559 11.8988 7.99559 13.5178V13.8584C7.99559 15.0483 8.70473 16.0717 9.72311 16.531Z" fill="#FD8B0E"/>
<path d="M11.4358 36.335V38.646H8.72997V36.335H3.94516C3.90392 36.6223 3.88191 36.9158 3.88191 37.2145C3.88191 40.6392 6.65817 43.4155 10.0828 43.4155C13.5075 43.4155 16.2838 40.6392 16.2838 37.2145C16.2838 36.9158 16.2618 36.6223 16.2205 36.335H11.4358Z" fill="#FD8B0E"/>
<path d="M38.2777 36.335V38.646H35.5719V36.335H30.7871C30.7457 36.6223 30.7238 36.9158 30.7238 37.2145C30.7238 40.6392 33.5001 43.4155 36.9247 43.4155C40.3494 43.4155 43.1257 40.6392 43.1257 37.2145C43.1257 36.9158 43.1037 36.6223 43.0624 36.335H38.2777Z" fill="#FD8B0E"/>
</g>
<defs>
<clipPath id="clip0_71:193">
<rect width="46" height="46" fill="white" transform="translate(0.503876)"/>
</clipPath>
</defs>
</svg>
