<svg width="35" height="35" viewBox="0 0 35 35" fill="none" xmlns="http://www.w3.org/2000/svg">
<g clip-path="url(#clip0_170:720)">
<path d="M32.9291 13.0516C28.7278 8.81819 23.0872 6.52347 17.0576 6.563C11.028 6.64214 5.42639 9.016 1.22508 13.289C0.758305 13.7637 0.758305 14.5155 1.22508 14.9507C1.45851 15.1881 1.76967 15.3068 2.04196 15.3068C2.31426 15.3068 2.62549 15.1881 2.85884 14.9507C10.639 7.03782 23.6318 6.95868 31.2952 14.7133C31.7619 15.188 32.5011 15.188 32.929 14.7133C33.357 14.2781 33.357 13.5263 32.9291 13.0516Z" fill="#7C829A"/>
<path d="M17.3299 15.8606C13.2842 15.8606 9.47199 17.4827 6.55449 20.4105C6.08771 20.8852 6.08771 21.637 6.55449 22.0722C6.78792 22.3096 7.09908 22.4283 7.37137 22.4283C7.64367 22.4283 7.9549 22.3096 8.18825 22.0722C10.639 19.5797 13.8678 18.1949 17.291 18.1949C20.5587 18.1949 23.5929 19.5006 25.8491 21.8348C26.3159 22.3095 27.0551 22.3095 27.483 21.8348C27.9497 21.3601 27.9497 20.6083 27.483 20.1731C24.8378 17.4036 21.22 15.8606 17.3299 15.8606Z" fill="#7C829A"/>
<path d="M11.6894 27.2947C11.2226 27.7695 11.2226 28.5212 11.6894 28.9564C11.9228 29.1938 12.2339 29.3125 12.5062 29.3125C12.8175 29.3125 13.0898 29.1938 13.3231 28.9564C15.4237 26.82 18.8081 26.7408 20.792 28.719C21.2588 29.1938 21.9979 29.1938 22.4259 28.719C22.8926 28.2443 22.8926 27.4925 22.4259 27.0573C19.5473 24.1296 14.7236 24.2482 11.6894 27.2947Z" fill="#7C829A"/>
</g>
<defs>
<clipPath id="clip0_170:720">
<rect width="35" height="35" fill="white"/>
</clipPath>
</defs>
</svg>
