<svg width="91" height="15" viewBox="0 0 91 15" fill="none" xmlns="http://www.w3.org/2000/svg">
<path d="M36.6857 0.0586083C37.4537 -0.187571 38.3466 0.363852 38.4502 1.15974C38.6032 1.91826 37.9956 2.71064 37.2181 2.76691C36.4941 2.86143 35.7681 2.3018 35.6912 1.58124C35.5839 0.919894 36.0321 0.230321 36.6857 0.0586083" fill="#254481"/>
<path d="M27.524 0.372777C27.9742 0.375427 28.4252 0.367238 28.8761 0.372777C29.1677 0.378168 29.4867 0.439974 29.6936 0.660706C29.9248 0.903296 29.9541 1.25578 29.955 1.57289C29.9513 3.15008 29.955 4.72727 29.9522 6.30446C30.274 6.28455 30.7102 6.36814 30.9064 6.04188C31.4582 5.20697 31.9999 4.36572 32.5509 3.52902C33.4611 3.53075 34.3722 3.52988 35.2833 3.52988C34.5573 4.6073 33.824 5.67949 33.0944 6.75418C32.9596 6.95866 32.8011 7.14576 32.6333 7.3238C32.966 7.64905 33.1429 8.0826 33.3638 8.4813C33.9395 9.62694 34.6499 10.6972 35.3062 11.7983C34.5829 11.7893 33.8587 11.8148 33.1356 11.7865C32.7113 11.7784 32.3106 11.5448 32.1081 11.1732C31.6204 10.3174 31.1795 9.43438 30.7021 8.57216C30.5563 8.30866 30.2025 8.39318 29.9541 8.36048C29.9513 9.50706 29.956 10.6527 29.9513 11.7983C29.1428 11.7983 28.3344 11.7966 27.525 11.7983C27.5222 7.98982 27.525 4.18122 27.524 0.372777" fill="#254481"/>
<path d="M42.068 4.45545C42.6043 3.8422 43.3751 3.44422 44.191 3.36703C45.0561 3.28616 46.014 3.40972 46.6868 4.00212C47.2974 4.52992 47.5421 5.34938 47.5916 6.12623C47.6219 8.016 47.5632 9.90743 47.6219 11.7964C47.1479 11.7891 46.6733 11.82 46.201 11.7791C45.8674 11.7555 45.5291 11.6001 45.3578 11.3049C45.1553 10.946 45.1937 10.5189 45.1909 10.1219C45.19 8.99711 45.1965 7.87159 45.1881 6.74588C45.1781 6.3198 45.0691 5.77741 44.6017 5.62654C43.9718 5.45943 43.2606 5.65378 42.7969 6.10624C42.3357 6.55418 42.1386 7.21192 42.1213 7.83796C42.1204 9.15719 42.122 10.4771 42.1213 11.7973C41.3191 11.7981 40.5172 11.7991 39.715 11.7973C39.715 9.04076 39.715 6.28522 39.715 3.52969C40.2972 3.56232 40.9066 3.43876 41.4658 3.64964C41.8115 3.77587 41.9819 4.12296 42.068 4.45545" fill="#254481"/>
<path d="M61.8586 4.6508C63.0328 3.48613 64.8623 3.12272 66.4436 3.53341C67.0549 3.7024 67.6967 3.98581 68.0394 4.5445C68.3804 5.10054 68.1998 5.77834 68.2447 6.39151C67.768 6.38159 67.2914 6.41157 66.8177 6.37887C66.4839 6.34163 66.2576 6.05541 66.1575 5.76016C66.0842 5.53481 65.8323 5.45762 65.6279 5.39767C64.7791 5.19872 63.8138 5.55939 63.3482 6.29988C62.8964 7.0121 62.8459 7.96151 63.1934 8.72564C63.537 9.47783 64.3655 9.91576 65.1777 9.93762C66.154 9.98844 67.0624 9.45611 67.714 8.77199C68.045 9.32249 68.3832 9.86847 68.7131 10.4201C67.0705 12.3097 63.8357 12.5287 61.9824 10.8269C60.2456 9.27246 60.2005 6.27708 61.8586 4.6508" fill="#4DAFE6"/>
<path d="M80.7061 4.56346C81.2038 3.97114 81.8941 3.50954 82.676 3.40324C83.4367 3.2988 84.2836 3.43055 84.8757 3.94841C85.1473 4.17369 85.3195 4.48627 85.5055 4.77967C86.0619 4.00383 86.9528 3.46325 87.9152 3.38598C88.7723 3.30879 89.7376 3.50235 90.315 4.18373C90.8732 4.84149 90.9907 5.73728 90.9996 6.56767C90.998 8.31118 91.0033 10.0555 90.9959 11.799C90.3967 11.7599 89.7579 11.898 89.1904 11.6527C88.7532 11.4456 88.6761 10.9122 88.6845 10.4826C88.6845 9.21065 88.6889 7.93771 88.6836 6.66578C88.6587 6.26874 88.6037 5.75632 88.1894 5.56737C87.6542 5.35295 87.0299 5.56198 86.6376 5.95536C86.1171 6.47409 85.9024 7.22363 85.8659 7.93771C85.8675 9.22237 85.8631 10.5071 85.8694 11.7927C85.0968 11.8026 84.3239 11.7944 83.5522 11.7972C83.5531 10.1746 83.5513 8.55283 83.5531 6.93014C83.544 6.52684 83.5091 6.07977 83.2268 5.7628C82.95 5.44295 82.4616 5.42749 82.0838 5.54833C81.5558 5.73908 81.2048 6.22791 80.9994 6.72486C80.752 7.3072 80.7106 7.9477 80.7098 8.57188C80.7106 9.64665 80.7098 10.7224 80.7106 11.7972C79.9545 11.7972 79.1991 11.7972 78.443 11.7963C78.4422 9.04885 78.4422 6.30151 78.443 3.5531C79.0333 3.58228 79.6767 3.44866 80.2212 3.73846C80.5303 3.90112 80.6218 4.25641 80.7061 4.56346" fill="#4DAFE6"/>
<path d="M35.9561 3.5301C36.5454 3.56 37.1559 3.44737 37.726 3.63367C38.1523 3.78172 38.3613 4.24146 38.3604 4.66489C38.3667 7.04248 38.3604 9.42001 38.3632 11.7977C37.5684 11.7986 36.7746 11.7986 35.9799 11.7977C35.9918 9.04116 35.9624 6.28648 35.9561 3.5301" fill="#254481"/>
<path d="M12.4256 5.46404C11.9179 5.61132 11.4916 5.98371 11.2597 6.4517C10.7472 7.50649 10.9444 9.02007 12.0241 9.65229C12.8683 10.142 14.0829 9.90321 14.619 9.07361C15.2003 8.16695 15.1645 6.87224 14.4697 6.03374C13.9811 5.45959 13.1425 5.25689 12.4256 5.46404V5.46404ZM12.0462 3.45257C13.4201 3.19461 14.9399 3.49347 15.9968 4.43469C17.7255 5.94827 17.841 8.86913 16.2992 10.551C14.631 12.3924 11.3257 12.3907 9.68219 10.5173C8.09457 8.75024 8.32381 5.6413 10.2762 4.22217C10.7941 3.83237 11.4082 3.57613 12.0462 3.45257" fill="#254481"/>
<path d="M21.7732 5.4587C21.083 5.64306 20.5697 6.25007 20.4093 6.92685C20.1646 7.88634 20.4102 9.0756 21.3076 9.6261C22.0307 10.0622 23.0419 9.98312 23.6642 9.40443C24.1903 8.92552 24.3791 8.18152 24.3444 7.49375C24.3206 6.84685 24.0538 6.17825 23.524 5.77762C23.0372 5.39502 22.3645 5.30151 21.7732 5.4587V5.4587ZM21.3186 3.46261C22.5258 3.2301 23.8476 3.40268 24.8777 4.09586C25.7486 4.65915 26.361 5.5786 26.5864 6.58069C26.8906 7.9245 26.6157 9.43613 25.6854 10.4865C24.0529 12.3708 20.7457 12.4143 19.0619 10.5764C17.5531 8.95377 17.5953 6.14822 19.1783 4.58827C19.7549 4.00772 20.5185 3.63073 21.3186 3.46261" fill="#254481"/>
<path d="M72.7315 5.44668C72.2128 5.57751 71.7645 5.94364 71.5207 6.41429C71.0396 7.36191 71.1367 8.65648 71.937 9.40882C72.6665 10.1021 73.9553 10.0584 74.6492 9.33428C75.101 8.86903 75.2817 8.2033 75.2598 7.57C75.2568 6.86863 74.96 6.13447 74.3659 5.7265C73.8985 5.394 73.2825 5.31681 72.7315 5.44668ZM72.3576 3.44069C73.729 3.20176 75.2393 3.51694 76.278 4.4701C77.9755 5.9982 78.0717 8.89821 76.5301 10.5662C74.8656 12.3806 71.6078 12.3851 69.9543 10.5544C68.4482 8.90366 68.5187 6.05721 70.1622 4.52186C70.7609 3.9513 71.5428 3.58243 72.3576 3.44069" fill="#4DAFE6"/>
<path d="M51.8328 5.54313C51.2946 5.74489 50.9978 6.29905 50.907 6.83504C50.7787 7.54919 50.8704 8.35047 51.3186 8.9446C51.8969 9.72239 53.2517 9.76335 53.8355 8.97193C54.2333 8.41495 54.2527 7.69086 54.2049 7.03586C54.1572 6.4834 53.9335 5.86929 53.4002 5.6104C52.9171 5.38499 52.3324 5.35596 51.8328 5.54313V5.54313ZM50.6356 3.61346C51.8631 3.12743 53.4074 3.22 54.424 4.11494C54.5671 3.83785 54.8109 3.60433 55.1289 3.54804C55.6084 3.46717 56.0968 3.5226 56.5799 3.50622C56.5817 6.041 56.5808 8.57494 56.5808 11.1097C56.5808 12.0354 56.2994 12.9894 55.6515 13.6762C54.8146 14.5794 53.5487 14.96 52.3405 14.9991C51.2159 15.0173 50.0811 14.751 49.0948 14.2096C49.2845 13.7489 49.433 13.2683 49.6714 12.8286C49.7913 12.5996 50.0646 12.4805 50.3185 12.5261C50.718 12.5978 51.0958 12.7651 51.5018 12.8159C52.2132 12.9212 53.0189 12.9067 53.6183 12.4625C54.0729 12.1191 54.2124 11.5203 54.1803 10.9798C53.4186 11.613 52.3571 11.722 51.4094 11.5513C50.4587 11.3786 49.598 10.789 49.0911 9.97503C48.4046 8.88926 48.2707 7.52822 48.5275 6.28992C48.7602 5.14161 49.5147 4.05499 50.6356 3.61346" fill="#254481"/>
<path d="M2.50872 6.86149C2.27137 7.01064 2.23192 7.3095 2.22554 7.5648C2.22372 8.3098 2.22648 9.05474 2.22648 9.79887C2.91937 9.79521 3.61329 9.80426 4.3072 9.79707C4.78109 9.78787 5.26506 9.5381 5.4887 9.11375C5.82598 8.47145 5.75998 7.56661 5.18341 7.07776C4.7114 6.68525 4.0597 6.73434 3.48406 6.73075C3.15954 6.74433 2.79754 6.67713 2.50872 6.86149ZM2.44367 2.43706C2.24932 2.60691 2.23285 2.87953 2.22554 3.11846C2.22372 3.73257 2.22741 4.34589 2.22554 4.96001C2.82865 4.95727 3.43184 4.9682 4.03497 4.95727C4.3961 4.95007 4.75998 4.79374 4.98088 4.50487C5.41626 3.91606 5.39154 2.94581 4.77101 2.49147C4.34563 2.18363 3.79384 2.2698 3.30074 2.25622C3.01292 2.26356 2.66911 2.21813 2.44367 2.43706V2.43706ZM0.00188686 1.57669C-0.0375622 0.935198 0.552722 0.356524 1.19435 0.372919C2.17239 0.372919 3.15033 0.372054 4.12844 0.372919C5.09182 0.394687 6.11105 0.675366 6.79204 1.38586C7.84252 2.45971 7.77929 4.36954 6.69675 5.39981C6.56942 5.51783 6.4346 5.62594 6.30263 5.7377C6.85999 6.01487 7.37602 6.41542 7.65368 6.98239C8.15696 8.0008 8.0964 9.29919 7.45579 10.2457C6.75085 11.2833 5.44107 11.723 4.22561 11.7503C2.81857 11.7549 1.41067 11.7503 0.00275706 11.7521C0.00188686 8.36062 0.00362726 4.96906 0.00188686 1.57669" fill="#254481"/>
<path d="M58.5232 9.17006C59.325 8.92475 60.2363 9.55533 60.2794 10.3858C60.3627 11.1161 59.7688 11.8357 59.0263 11.8848C58.2939 11.9774 57.5671 11.3987 57.5038 10.6701C57.4076 10.0077 57.8658 9.32906 58.5232 9.17006" fill="#4DAFE6"/>
</svg>
