<svg width="23" height="23" viewBox="0 0 23 23" fill="none" xmlns="http://www.w3.org/2000/svg">
<path d="M23 11.1757C23 5.1126 17.8528 0.200195 11.5 0.200195C5.14718 0.200195 0 5.1126 0 11.1757C0 16.6537 4.20538 21.1943 9.70313 22.0184L9.70313 14.3484H6.78175L6.78175 11.1757H9.70313V8.75752C9.70313 6.00702 11.4189 4.48771 14.0467 4.48771C15.3052 4.48771 16.6212 4.70191 16.6212 4.70191V7.40152H15.1707C13.7425 7.40152 13.2969 8.2477 13.2969 9.11555V11.1757H16.4863L15.9762 14.3484H13.2969L13.2969 22.0184C18.7946 21.1943 23 16.6537 23 11.1757Z" fill="#BEC3D3"/>
</svg>
