<svg width="22" height="22" viewBox="0 0 22 22" fill="none" xmlns="http://www.w3.org/2000/svg">
<path d="M11.0047 5.60928C7.88147 5.60928 5.36228 8.01396 5.36228 10.9952C5.36228 13.9765 7.88147 16.3811 11.0047 16.3811C14.1279 16.3811 16.6471 13.9765 16.6471 10.9952C16.6471 8.01396 14.1279 5.60928 11.0047 5.60928ZM11.0047 14.4968C8.98639 14.4968 7.33638 12.9265 7.33638 10.9952C7.33638 9.06396 8.98147 7.49365 11.0047 7.49365C13.0279 7.49365 14.673 9.06396 14.673 10.9952C14.673 12.9265 13.023 14.4968 11.0047 14.4968ZM18.194 5.38896C18.194 6.0874 17.6047 6.64521 16.8779 6.64521C16.1462 6.64521 15.5618 6.08271 15.5618 5.38896C15.5618 4.69521 16.1511 4.13271 16.8779 4.13271C17.6047 4.13271 18.194 4.69521 18.194 5.38896ZM21.931 6.66396C21.8475 4.98115 21.4449 3.49053 20.1534 2.2624C18.8667 1.03428 17.3051 0.649902 15.5422 0.565527C13.7252 0.46709 8.27924 0.46709 6.46228 0.565527C4.70424 0.645215 3.14263 1.02959 1.85112 2.25771C0.559598 3.48584 0.16183 4.97646 0.0734375 6.65928C-0.0296875 8.39365 -0.0296875 13.5921 0.0734375 15.3265C0.15692 17.0093 0.559598 18.4999 1.85112 19.728C3.14263 20.9561 4.69933 21.3405 6.46228 21.4249C8.27924 21.5233 13.7252 21.5233 15.5422 21.4249C17.3051 21.3452 18.8667 20.9608 20.1534 19.728C21.44 18.4999 21.8426 17.0093 21.931 15.3265C22.0342 13.5921 22.0342 8.39834 21.931 6.66396ZM19.5837 17.1874C19.2007 18.1061 18.4592 18.814 17.4917 19.1843C16.0431 19.7327 12.6056 19.6061 11.0047 19.6061C9.4038 19.6061 5.96138 19.728 4.51763 19.1843C3.55513 18.8186 2.81362 18.1108 2.42567 17.1874C1.85112 15.8046 1.98371 12.5233 1.98371 10.9952C1.98371 9.46709 1.85603 6.18115 2.42567 4.80303C2.80871 3.88428 3.55022 3.17646 4.51763 2.80615C5.9663 2.25771 9.4038 2.38428 11.0047 2.38428C12.6056 2.38428 16.048 2.2624 17.4917 2.80615C18.4542 3.17178 19.1958 3.87959 19.5837 4.80303C20.1583 6.18584 20.0257 9.46709 20.0257 10.9952C20.0257 12.5233 20.1583 15.8093 19.5837 17.1874Z" fill="#BEC3D3"/>
</svg>
