<svg width="158" height="32" fill="none" xmlns="http://www.w3.org/2000/svg"><path d="M40.39 2.994c1.115 0 1.961-.018 2.627.342.702.414 1.08 1.386 1.08 2.556 0 2.862-2.088 2.934-4.104 2.934V2.994h.396Zm1.745 6.732c2.952 0 4.644-1.944 4.644-4.104 0-1.872-1.602-3.564-4.266-3.564l-3.636.018h-1.404V15h2.52V9.654c.306.036.918.072 2.142.072Zm10.032-3.528c-2.682 0-4.536 1.818-4.536 4.518 0 2.772 1.818 4.428 4.536 4.464 2.718-.054 4.536-1.71 4.536-4.5-.018-2.538-1.71-4.482-4.536-4.482Zm2.034 4.5c0 1.926-.45 3.618-2.034 3.618-1.602 0-2.034-1.692-2.034-3.618s.432-3.672 2.034-3.654c1.584.018 2.034 1.746 2.034 3.654Zm8.424-3.204c.648 0 1.098.198 1.35.594.27.414.324.828.324 1.782L64.28 15h2.16l.018-5.67c0-2.052-1.206-3.132-2.916-3.132-1.404 0-2.25.576-2.826 1.53l-.414-1.746-1.62 1.08V15h2.16V9.006c.108-.486.468-1.512 1.782-1.512Zm12.46 7.83 2.125-.036V.582l-2.16 1.08v4.86a4.316 4.316 0 0 0-1.602-.288c-2.952 0-4.986 2.232-4.986 4.644 0 2.988 1.998 4.32 3.924 4.356 1.116.018 2.088-.324 2.682-1.116l.018 1.206Zm-4.391-5.274c0-1.638 1.476-2.916 2.376-2.916.918 0 1.836.666 1.98 2.124V13.2c-.504.378-1.098.414-1.458.432-1.044.072-2.898-1.152-2.898-3.582Zm13.325-3.852c-2.682 0-4.536 1.818-4.536 4.518 0 2.772 1.818 4.428 4.536 4.464 2.718-.054 4.536-1.71 4.536-4.5-.018-2.538-1.71-4.482-4.536-4.482Zm2.034 4.5c0 1.926-.45 3.618-2.034 3.618-1.602 0-2.034-1.692-2.034-3.618s.432-3.672 2.034-3.654c1.584.018 2.034 1.746 2.034 3.654Zm13.517 4.284-4.482-5.49 3.51-3.15h-1.332l-3.762 3.492H93l.018-8.334-2.16 1.44V15H93v-4.176h.396l3.384 4.158c.936.036 1.854.018 2.79 0Zm19.157.846-6.138-8.838 4.842-4.914h-1.44l-6.3 6.516V2.076h-2.52V15h2.52V9.942l.864-.864c.468.558.864 1.062 1.89 2.34 1.548 1.944 4.212 4.41 6.282 4.41Zm6.015-6.39h-3.762c0-1.53 1.062-2.394 2.034-2.394 1.134 0 1.728.972 1.728 2.394Zm-1.494 5.742c1.692 0 2.988-1.116 3.42-1.836l-.126-.954c-.594.414-1.512.972-2.556.972h-.018c-1.782 0-2.898-1.224-2.988-3.024h6.066v-.9c-.126-2.466-2.268-3.24-3.762-3.24-2.628 0-4.338 2.142-4.338 4.662 0 2.214 1.44 4.32 4.23 4.32h.072Zm6.003-.18h2.142l.018-13.878-2.16 1.44V15Zm10.487.288 1.602-.486V9.24c0-2.412-1.458-3.132-3.024-3.132h-.288c-1.854 0-3.366 1.188-3.564 2.61l1.872-.432c.144-.738.594-1.314 1.386-1.314.936 0 1.548.702 1.566 2.016l-.018 1.062c-.864.072-1.728.036-2.916.396-1.116.342-2.25 1.314-2.25 2.754 0 .81.522 2.052 2.196 2.052 1.188 0 2.412-.666 2.988-1.62l.45 1.656Zm-2.574-1.386c-.468 0-.918-.324-.918-.864 0-.684.252-1.35 1.224-1.782.81-.306 1.296-.486 1.782-.594l-.018 1.89c-.396.936-1.422 1.35-2.07 1.35Zm12.523 1.422 2.124-.036V.582l-2.16 1.08v4.86a4.316 4.316 0 0 0-1.602-.288c-2.952 0-4.986 2.232-4.986 4.644 0 2.988 1.998 4.32 3.924 4.356 1.116.018 2.088-.324 2.682-1.116l.018 1.206Zm-4.392-5.274c0-1.638 1.476-2.916 2.376-2.916.918 0 1.836.666 1.98 2.124V13.2c-.504.378-1.098.414-1.458.432-1.044.072-2.898-1.152-2.898-3.582Zm9.365-6.498c0 .234 1.332 1.548 1.53 1.548.234 0 1.548-1.26 1.548-1.548 0-.234-1.278-1.548-1.548-1.548-.252 0-1.53 1.35-1.53 1.548ZM155.092 15h2.16V5.838l-2.16 1.314V15ZM42.777 29.88c-.29.415-.693.726-1.213.933-.516.203-1.117.304-1.805.304-.695 0-1.312-.162-1.851-.486a3.298 3.298 0 0 1-1.254-1.395c-.293-.601-.444-1.299-.451-2.091V26.4c0-1.285.299-2.28.896-2.988.602-.707 1.446-1.06 2.532-1.06.89 0 1.607.228 2.15.685.543.453.875 1.098.996 1.934h-1.125c-.211-1.13-.883-1.694-2.016-1.694-.754 0-1.326.266-1.717.797-.386.528-.581 1.293-.585 2.297v.697c0 .957.218 1.72.656 2.285.437.563 1.03.844 1.775.844.422 0 .791-.047 1.108-.14a1.71 1.71 0 0 0 .785-.475v-1.916h-1.975v-.914h3.094v3.129Zm6.345.493c-.422.496-1.041.744-1.858.744-.675 0-1.19-.195-1.546-.586-.352-.394-.53-.976-.534-1.746V24.66h1.084v4.096c0 .96.391 1.441 1.172 1.441.828 0 1.38-.308 1.653-.925V24.66h1.084V31h-1.032l-.023-.627Zm6.058.744c-.86 0-1.559-.281-2.098-.844-.539-.566-.808-1.322-.808-2.267v-.2c0-.628.119-1.189.357-1.681a2.815 2.815 0 0 1 1.008-1.16 2.536 2.536 0 0 1 1.406-.422c.824 0 1.465.271 1.922.814.457.543.686 1.32.686 2.332v.452h-4.295c.015.625.197 1.13.545 1.517.351.383.796.574 1.335.574.383 0 .708-.078.973-.234.266-.156.498-.363.697-.621l.663.516c-.532.816-1.329 1.224-2.391 1.224Zm-.135-5.683c-.437 0-.805.16-1.102.48-.296.316-.48.762-.55 1.336h3.175v-.082c-.03-.55-.18-.977-.445-1.277-.265-.305-.625-.457-1.078-.457Zm8.279 3.884a.79.79 0 0 0-.334-.68c-.22-.163-.604-.304-1.155-.421-.547-.117-.982-.258-1.306-.422-.32-.164-.559-.36-.715-.586a1.415 1.415 0 0 1-.229-.809c0-.52.22-.959.657-1.318.441-.36 1.004-.539 1.687-.539.719 0 1.3.186 1.746.557.45.37.674.845.674 1.423h-1.09c0-.296-.127-.552-.38-.767-.25-.215-.567-.322-.95-.322-.394 0-.703.085-.926.257a.811.811 0 0 0-.334.674c0 .262.104.46.31.592.208.133.581.26 1.12.38.543.122.983.267 1.318.434.336.168.584.372.745.61.164.234.246.521.246.861a1.63 1.63 0 0 1-.68 1.365c-.453.34-1.041.51-1.764.51-.508 0-.957-.09-1.347-.27a2.205 2.205 0 0 1-.92-.75 1.84 1.84 0 0 1-.328-1.048h1.084c.02.363.164.652.433.867.274.211.633.316 1.078.316.41 0 .739-.082.985-.246.25-.168.375-.39.375-.668Zm4.686-6.193v1.535h1.184v.838H68.01v3.932c0 .254.053.445.159.574.105.125.285.187.539.187.125 0 .297-.023.515-.07V31a3.144 3.144 0 0 1-.832.117c-.484 0-.85-.146-1.095-.44-.247-.292-.37-.708-.37-1.247v-3.932h-1.154v-.838h1.154v-1.535h1.084ZM81.61 31h-1.131v-3.943h-4.301V31h-1.125v-8.531h1.125v3.668h4.3v-3.668h1.132V31Zm2.26-3.229c0-.62.122-1.18.364-1.675a2.758 2.758 0 0 1 1.02-1.149 2.79 2.79 0 0 1 1.494-.404c.863 0 1.56.299 2.091.896.536.598.803 1.393.803 2.385v.076c0 .618-.119 1.172-.357 1.665a2.67 2.67 0 0 1-1.014 1.142c-.437.273-.941.41-1.512.41-.859 0-1.556-.299-2.091-.896-.532-.598-.797-1.389-.797-2.373v-.076Zm1.09.13c0 .703.163 1.267.487 1.693.328.425.766.638 1.312.638.551 0 .989-.214 1.313-.644.324-.434.486-1.04.486-1.817 0-.695-.166-1.257-.498-1.687a1.564 1.564 0 0 0-1.312-.65c-.535 0-.967.212-1.295.638-.328.426-.492 1.035-.492 1.828Zm10.676 2.472c-.422.496-1.041.744-1.858.744-.676 0-1.191-.195-1.547-.586-.351-.394-.529-.976-.533-1.746V24.66h1.084v4.096c0 .96.39 1.441 1.172 1.441.828 0 1.379-.308 1.652-.925V24.66h1.084V31h-1.03l-.024-.627Zm7.118-1.055c0-.293-.111-.52-.334-.68-.219-.163-.603-.304-1.154-.421-.547-.117-.983-.258-1.307-.422-.32-.164-.558-.36-.715-.586a1.414 1.414 0 0 1-.228-.809c0-.52.219-.959.656-1.318.441-.36 1.004-.539 1.688-.539.718 0 1.3.186 1.746.557.449.37.673.845.673 1.423h-1.089c0-.296-.127-.552-.381-.767-.25-.215-.567-.322-.949-.322-.395 0-.704.085-.926.257a.81.81 0 0 0-.334.674c0 .262.103.46.31.592.207.133.58.26 1.119.38.543.122.983.267 1.319.434.336.168.584.372.744.61.164.234.246.521.246.861a1.63 1.63 0 0 1-.68 1.365c-.453.34-1.041.51-1.763.51-.508 0-.957-.09-1.348-.27a2.218 2.218 0 0 1-.92-.75 1.84 1.84 0 0 1-.328-1.048h1.084c.02.363.164.652.434.867.273.211.632.316 1.078.316.41 0 .738-.082.984-.246.25-.168.375-.39.375-.668Zm5.847 1.8c-.859 0-1.559-.282-2.098-.845-.539-.566-.808-1.322-.808-2.267v-.2c0-.628.119-1.189.357-1.681a2.812 2.812 0 0 1 1.008-1.16 2.536 2.536 0 0 1 1.406-.422c.824 0 1.465.271 1.922.814.457.543.686 1.32.686 2.332v.452h-4.295c.015.625.197 1.13.545 1.517.351.383.797.574 1.336.574.382 0 .707-.078.972-.234.266-.156.498-.363.698-.621l.662.516c-.532.816-1.329 1.224-2.391 1.224Zm-.135-5.684c-.437 0-.804.16-1.101.48-.297.316-.481.762-.551 1.336h3.176v-.082c-.032-.55-.18-.977-.446-1.277-.265-.305-.625-.457-1.078-.457Z" fill="#fff"/><path d="M24 13.75a2.507 2.507 0 0 0-2.5 2.5h-1.25V5L4 11.25V27.5h22.5V16.25c0-1.375-1.125-2.5-2.5-2.5Zm-17.5-.787 11.25-4.325v7.612H11.5V25h-5V12.963ZM24 25h-3.75v-3.75h-2.5V25H14v-6.25h10V25Z" fill="#FD8B0E"/></svg>