<svg width="159" height="36" viewBox="0 0 159 36" fill="none" xmlns="http://www.w3.org/2000/svg">
<path d="M40.3894 4.994C41.5054 4.994 42.3514 4.976 43.0174 5.336C43.7194 5.75 44.0974 6.722 44.0974 7.892C44.0974 10.754 42.0094 10.826 39.9934 10.826V4.994H40.3894ZM42.1354 11.726C45.0874 11.726 46.7794 9.782 46.7794 7.622C46.7794 5.75 45.1774 4.058 42.5134 4.058L38.8774 4.076H37.4734V17H39.9934V11.654C40.2994 11.69 40.9114 11.726 42.1354 11.726ZM52.1671 8.198C49.4851 8.198 47.6311 10.016 47.6311 12.716C47.6311 15.488 49.4491 17.144 52.1671 17.18C54.8851 17.126 56.7031 15.47 56.7031 12.68C56.6851 10.142 54.9931 8.198 52.1671 8.198ZM54.2011 12.698C54.2011 14.624 53.7511 16.316 52.1671 16.316C50.5651 16.316 50.1331 14.624 50.1331 12.698C50.1331 10.772 50.5651 9.026 52.1671 9.044C53.7511 9.062 54.2011 10.79 54.2011 12.698ZM62.6249 9.494C63.2729 9.494 63.7229 9.692 63.9749 10.088C64.2449 10.502 64.2989 10.916 64.2989 11.87L64.2809 17H66.4409L66.4589 11.33C66.4589 9.278 65.2529 8.198 63.5429 8.198C62.1389 8.198 61.2929 8.774 60.7169 9.728L60.3029 7.982L58.6829 9.062V17H60.8429V11.006C60.9509 10.52 61.3109 9.494 62.6249 9.494ZM75.0856 17.324L77.2096 17.288V2.582L75.0496 3.662V8.522C74.5096 8.306 73.9516 8.234 73.4476 8.234C70.4956 8.234 68.4616 10.466 68.4616 12.878C68.4616 15.866 70.4596 17.198 72.3856 17.234C73.5016 17.252 74.4736 16.91 75.0676 16.118L75.0856 17.324ZM70.6936 12.05C70.6936 10.412 72.1696 9.134 73.0696 9.134C73.9876 9.134 74.9056 9.8 75.0496 11.258V15.2C74.5456 15.578 73.9516 15.614 73.5916 15.632C72.5476 15.704 70.6936 14.48 70.6936 12.05ZM84.0187 8.198C81.3367 8.198 79.4827 10.016 79.4827 12.716C79.4827 15.488 81.3007 17.144 84.0187 17.18C86.7367 17.126 88.5547 15.47 88.5547 12.68C88.5367 10.142 86.8447 8.198 84.0187 8.198ZM86.0527 12.698C86.0527 14.624 85.6027 16.316 84.0187 16.316C82.4167 16.316 81.9847 14.624 81.9847 12.698C81.9847 10.772 82.4167 9.026 84.0187 9.044C85.6027 9.062 86.0527 10.79 86.0527 12.698ZM99.5704 16.982L95.0884 11.492L98.5984 8.342H97.2664L93.5044 11.834H93.0004L93.0184 3.5L90.8584 4.94V17H93.0004V12.824H93.3964L96.7804 16.982C97.7164 17.018 98.6344 17 99.5704 16.982ZM118.727 17.828L112.589 8.99L117.431 4.076H115.991L109.691 10.592V4.076H107.171V17H109.691V11.942L110.555 11.078C111.023 11.636 111.419 12.14 112.445 13.418C113.993 15.362 116.657 17.828 118.727 17.828ZM124.742 11.438H120.98C120.98 9.908 122.042 9.044 123.014 9.044C124.148 9.044 124.742 10.016 124.742 11.438ZM123.248 17.18C124.94 17.18 126.236 16.064 126.668 15.344L126.542 14.39C125.948 14.804 125.03 15.362 123.986 15.362H123.968C122.186 15.362 121.07 14.138 120.98 12.338H127.046V11.798C127.046 11.708 127.046 11.636 127.046 11.564V11.438C126.92 8.972 124.778 8.198 123.284 8.198C120.656 8.198 118.946 10.34 118.946 12.86C118.946 15.074 120.386 17.18 123.176 17.18H123.248ZM129.251 17H131.393L131.411 3.122L129.251 4.562V17ZM139.738 17.288L141.34 16.802V11.24C141.34 8.828 139.882 8.108 138.316 8.108H138.028C136.174 8.108 134.662 9.296 134.464 10.718L136.336 10.286C136.48 9.548 136.93 8.972 137.722 8.972C138.658 8.972 139.27 9.674 139.288 10.988L139.27 12.05C138.406 12.122 137.542 12.086 136.354 12.446C135.238 12.788 134.104 13.76 134.104 15.2C134.104 16.01 134.626 17.252 136.3 17.252C137.488 17.252 138.712 16.586 139.288 15.632L139.738 17.288ZM137.164 15.902C136.696 15.902 136.246 15.578 136.246 15.038C136.246 14.354 136.498 13.688 137.47 13.256C138.28 12.95 138.766 12.77 139.252 12.662L139.234 14.552C138.838 15.488 137.812 15.902 137.164 15.902ZM149.687 17.324L151.811 17.288V2.582L149.651 3.662V8.522C149.111 8.306 148.553 8.234 148.049 8.234C145.097 8.234 143.063 10.466 143.063 12.878C143.063 15.866 145.061 17.198 146.987 17.234C148.103 17.252 149.075 16.91 149.669 16.118L149.687 17.324ZM145.295 12.05C145.295 10.412 146.771 9.134 147.671 9.134C148.589 9.134 149.507 9.8 149.651 11.258V15.2C149.147 15.578 148.553 15.614 148.193 15.632C147.149 15.704 145.295 14.48 145.295 12.05ZM154.66 5.552C154.66 5.786 155.992 7.1 156.19 7.1C156.424 7.1 157.738 5.84 157.738 5.552C157.738 5.318 156.46 4.004 156.19 4.004C155.938 4.004 154.66 5.354 154.66 5.552ZM155.092 17H157.252V7.838L155.092 9.152V17Z" fill="#BEC3D3"/>
<path d="M42.777 31.8809C42.4879 32.2949 42.0836 32.6055 41.5641 32.8125C41.0484 33.0156 40.4469 33.1172 39.7594 33.1172C39.0641 33.1172 38.4469 32.9551 37.9078 32.6309C37.3688 32.3027 36.9508 31.8379 36.6539 31.2363C36.3609 30.6348 36.2105 29.9375 36.2027 29.1445V28.4004C36.2027 27.1152 36.5016 26.1191 37.0992 25.4121C37.7008 24.7051 38.5445 24.3516 39.6305 24.3516C40.5211 24.3516 41.2379 24.5801 41.7809 25.0371C42.3238 25.4902 42.6559 26.1348 42.777 26.9707H41.652C41.441 25.8418 40.7691 25.2773 39.6363 25.2773C38.8824 25.2773 38.3102 25.543 37.9195 26.0742C37.5328 26.6016 37.3375 27.3672 37.3336 28.3711V29.0684C37.3336 30.0254 37.5523 30.7871 37.9898 31.3535C38.4273 31.916 39.0191 32.1973 39.7652 32.1973C40.1871 32.1973 40.5563 32.1504 40.8727 32.0566C41.1891 31.9629 41.4508 31.8047 41.6578 31.582V29.666H39.6832V28.752H42.777V31.8809ZM49.122 32.373C48.7001 32.8691 48.0809 33.1172 47.2645 33.1172C46.5888 33.1172 46.0731 32.9219 45.7177 32.5312C45.3661 32.1367 45.1884 31.5547 45.1845 30.7852V26.6602H46.2684V30.7559C46.2684 31.7168 46.6591 32.1973 47.4403 32.1973C48.2684 32.1973 48.8192 31.8887 49.0927 31.2715V26.6602H50.1766V33H49.1454L49.122 32.373ZM55.1798 33.1172C54.3205 33.1172 53.6213 32.8359 53.0822 32.2734C52.5431 31.707 52.2736 30.9512 52.2736 30.0059V29.8066C52.2736 29.1777 52.3927 28.6172 52.631 28.125C52.8732 27.6289 53.2091 27.2422 53.6388 26.9648C54.0724 26.6836 54.5412 26.543 55.0451 26.543C55.8693 26.543 56.5099 26.8145 56.967 27.3574C57.424 27.9004 57.6525 28.6777 57.6525 29.6895V30.1406H53.3576C53.3732 30.7656 53.5548 31.2715 53.9025 31.6582C54.2541 32.041 54.6994 32.2324 55.2384 32.2324C55.6213 32.2324 55.9455 32.1543 56.2111 31.998C56.4767 31.8418 56.7091 31.6348 56.9084 31.377L57.5705 31.8926C57.0392 32.709 56.2423 33.1172 55.1798 33.1172ZM55.0451 27.4336C54.6076 27.4336 54.2404 27.5938 53.9435 27.9141C53.6466 28.2305 53.463 28.6758 53.3927 29.25H56.5685V29.168C56.5373 28.6172 56.3888 28.1914 56.1232 27.8906C55.8576 27.5859 55.4982 27.4336 55.0451 27.4336ZM63.3237 31.3184C63.3237 31.0254 63.2123 30.7988 62.9897 30.6387C62.7709 30.4746 62.3862 30.334 61.8354 30.2168C61.2885 30.0996 60.853 29.959 60.5288 29.7949C60.2084 29.6309 59.9702 29.4355 59.8139 29.209C59.6616 28.9824 59.5854 28.7129 59.5854 28.4004C59.5854 27.8809 59.8041 27.4414 60.2416 27.082C60.683 26.7227 61.2455 26.543 61.9291 26.543C62.6479 26.543 63.2299 26.7285 63.6752 27.0996C64.1245 27.4707 64.3491 27.9453 64.3491 28.5234H63.2592C63.2592 28.2266 63.1323 27.9707 62.8784 27.7559C62.6284 27.541 62.312 27.4336 61.9291 27.4336C61.5346 27.4336 61.226 27.5195 61.0034 27.6914C60.7807 27.8633 60.6694 28.0879 60.6694 28.3652C60.6694 28.627 60.7729 28.8242 60.9799 28.957C61.187 29.0898 61.56 29.2168 62.0991 29.3379C62.642 29.459 63.0815 29.6035 63.4174 29.7715C63.7534 29.9395 64.0014 30.1426 64.1616 30.3809C64.3256 30.6152 64.4077 30.9023 64.4077 31.2422C64.4077 31.8086 64.1811 32.2637 63.728 32.6074C63.2748 32.9473 62.687 33.1172 61.9643 33.1172C61.4565 33.1172 61.0073 33.0273 60.6166 32.8477C60.226 32.668 59.9194 32.418 59.6967 32.0977C59.478 31.7734 59.3686 31.4238 59.3686 31.0488H60.4526C60.4721 31.4121 60.6166 31.7012 60.8862 31.916C61.1596 32.127 61.519 32.2324 61.9643 32.2324C62.3745 32.2324 62.7026 32.1504 62.9487 31.9863C63.1987 31.8184 63.3237 31.5957 63.3237 31.3184ZM68.0105 25.125V26.6602H69.1941V27.498H68.0105V31.4297C68.0105 31.6836 68.0632 31.875 68.1687 32.0039C68.2741 32.1289 68.4538 32.1914 68.7077 32.1914C68.8327 32.1914 69.0046 32.168 69.2234 32.1211V33C68.9382 33.0781 68.6609 33.1172 68.3913 33.1172C67.907 33.1172 67.5417 32.9707 67.2956 32.6777C67.0495 32.3848 66.9265 31.9688 66.9265 31.4297V27.498H65.7722V26.6602H66.9265V25.125H68.0105ZM81.6087 33H80.4778V29.0566H76.177V33H75.052V24.4688H76.177V28.1367H80.4778V24.4688H81.6087V33ZM83.8697 29.7715C83.8697 29.1504 83.9908 28.5918 84.233 28.0957C84.4791 27.5996 84.8189 27.2168 85.2525 26.9473C85.69 26.6777 86.188 26.543 86.7466 26.543C87.6099 26.543 88.3072 26.8418 88.8384 27.4395C89.3736 28.0371 89.6412 28.832 89.6412 29.8242V29.9004C89.6412 30.5176 89.522 31.0723 89.2838 31.5645C89.0494 32.0527 88.7115 32.4336 88.2701 32.707C87.8326 32.9805 87.3287 33.1172 86.7584 33.1172C85.899 33.1172 85.2017 32.8184 84.6666 32.2207C84.1353 31.623 83.8697 30.832 83.8697 29.8477V29.7715ZM84.9595 29.9004C84.9595 30.6035 85.1216 31.168 85.4459 31.5938C85.774 32.0195 86.2115 32.2324 86.7584 32.2324C87.3091 32.2324 87.7466 32.0176 88.0709 31.5879C88.3951 31.1543 88.5572 30.5488 88.5572 29.7715C88.5572 29.0762 88.3912 28.5137 88.0591 28.084C87.731 27.6504 87.2935 27.4336 86.7466 27.4336C86.2115 27.4336 85.7798 27.6465 85.4517 28.0723C85.1236 28.498 84.9595 29.1074 84.9595 29.9004ZM95.6346 32.373C95.2127 32.8691 94.5936 33.1172 93.7772 33.1172C93.1014 33.1172 92.5858 32.9219 92.2303 32.5312C91.8788 32.1367 91.701 31.5547 91.6971 30.7852V26.6602H92.7811V30.7559C92.7811 31.7168 93.1717 32.1973 93.953 32.1973C94.7811 32.1973 95.3319 31.8887 95.6053 31.2715V26.6602H96.6893V33H95.6581L95.6346 32.373ZM102.753 31.3184C102.753 31.0254 102.642 30.7988 102.419 30.6387C102.2 30.4746 101.816 30.334 101.265 30.2168C100.718 30.0996 100.282 29.959 99.9581 29.7949C99.6378 29.6309 99.3995 29.4355 99.2433 29.209C99.0909 28.9824 99.0148 28.7129 99.0148 28.4004C99.0148 27.8809 99.2335 27.4414 99.671 27.082C100.112 26.7227 100.675 26.543 101.359 26.543C102.077 26.543 102.659 26.7285 103.105 27.0996C103.554 27.4707 103.778 27.9453 103.778 28.5234H102.689C102.689 28.2266 102.562 27.9707 102.308 27.7559C102.058 27.541 101.741 27.4336 101.359 27.4336C100.964 27.4336 100.655 27.5195 100.433 27.6914C100.21 27.8633 100.099 28.0879 100.099 28.3652C100.099 28.627 100.202 28.8242 100.409 28.957C100.616 29.0898 100.989 29.2168 101.528 29.3379C102.071 29.459 102.511 29.6035 102.847 29.7715C103.183 29.9395 103.431 30.1426 103.591 30.3809C103.755 30.6152 103.837 30.9023 103.837 31.2422C103.837 31.8086 103.61 32.2637 103.157 32.6074C102.704 32.9473 102.116 33.1172 101.394 33.1172C100.886 33.1172 100.437 33.0273 100.046 32.8477C99.6554 32.668 99.3488 32.418 99.1261 32.0977C98.9073 31.7734 98.798 31.4238 98.798 31.0488H99.882C99.9015 31.4121 100.046 31.7012 100.316 31.916C100.589 32.127 100.948 32.2324 101.394 32.2324C101.804 32.2324 102.132 32.1504 102.378 31.9863C102.628 31.8184 102.753 31.5957 102.753 31.3184ZM108.6 33.1172C107.741 33.1172 107.041 32.8359 106.502 32.2734C105.963 31.707 105.694 30.9512 105.694 30.0059V29.8066C105.694 29.1777 105.813 28.6172 106.051 28.125C106.293 27.6289 106.629 27.2422 107.059 26.9648C107.493 26.6836 107.961 26.543 108.465 26.543C109.289 26.543 109.93 26.8145 110.387 27.3574C110.844 27.9004 111.073 28.6777 111.073 29.6895V30.1406H106.778C106.793 30.7656 106.975 31.2715 107.323 31.6582C107.674 32.041 108.12 32.2324 108.659 32.2324C109.041 32.2324 109.366 32.1543 109.631 31.998C109.897 31.8418 110.129 31.6348 110.329 31.377L110.991 31.8926C110.459 32.709 109.662 33.1172 108.6 33.1172ZM108.465 27.4336C108.028 27.4336 107.661 27.5938 107.364 27.9141C107.067 28.2305 106.883 28.6758 106.813 29.25H109.989V29.168C109.957 28.6172 109.809 28.1914 109.543 27.8906C109.278 27.5859 108.918 27.4336 108.465 27.4336Z" fill="#BEC3D3"/>
<path d="M24 15.75C22.625 15.75 21.5 16.875 21.5 18.25H20.25V7L4 13.25V29.5H26.5V18.25C26.5 16.875 25.375 15.75 24 15.75ZM6.5 14.9625L17.75 10.6375V18.25H11.5V27H6.5V14.9625ZM24 27H20.25V23.25H17.75V27H14V20.75H24V27Z" fill="#BEC3D3"/>
</svg>
