<svg width="156" height="92" fill="none" xmlns="http://www.w3.org/2000/svg"><path d="M16.576 52.348c.195 4.071 4.519 7.512 5.007 6.422.489-1.09 0-2.908-.122-3.635-.122-.727-.61-3.15-.61-3.877V48.47c0-.485.732-2.908 1.22-3.756.489-.848 0-4.847 0-4.847s-.61-4.24-.61-4.725V32.6c0-.727.407-2.383.61-3.393 0 0 .489-1.575.489-2.18 0-.606-1.587-1.818-1.587-2.303 0-.484 0-.363.488-.727.488-.363.855-.363 1.71-.484s3.907-.727 4.884-1.09c.977-.364 3.664-.728 4.397-.849.733-.12 7.327-2.302 9.037-2.302 1.71 0 4.64-.727 6.472-1.09 1.832-.364 10.502-3.393 12.334-3.635 1.832-.242 7.205-1.212 8.304-1.454 1.1-.242 10.014-3.271 10.014-3.271s3.542-1.818 3.664-1.09c.122.726-.489.605-.489 1.574 0 .97.855 5.453.855 5.453s.733 8.48.61 9.571c-.121 1.09-.243 4.726-.121 5.937.122 1.212.855 4.362.977 6.785s-1.1 3.15-.489 10.904c.61 7.755 3.664 7.27 4.03 7.27.366 0 1.1-.606 1.1-1.211 0-.606-.734-.97-1.1-1.333-.366-.364 0-4.725 0-4.725s-.244-5.21 0-6.907c.244-1.696 0-7.39 0-7.996 0-.606-.61-2.423-.61-2.787 0-.983.244-1.696.244-2.787 0-1.09-.489-2.302-.61-2.786-.123-.485.121-1.939 0-2.545-.123-.605-.856-2.423-.612-2.907.245-.485.611-.122.978 0 .366.12 5.983.605 7.082.605 1.1 0 3.542.323 5.007.485 0 0 7.938.97 8.549.97.61 0 6.228.484 6.716.605.489.121 4.885.606 5.496.727.61.121 2.076.363 2.442.363.367 0 4.152.727 4.885.849.733.12 5.495 1.332 5.984 1.332.488 0 1.954 0 2.32-.848.367-.848-.733-1.696-1.343-2.423-.611-.727-2.076-.606-2.565-.848-.488-.242-.732-.485-1.465-.727-.733-.242-2.32 0-2.931 0h-2.198c-.977 0-3.175-.485-3.175-.485s-3.542-.848-4.763-1.09c-1.221-.242-5.251 0-5.984 0-.733 0-5.862-.727-6.472-.97-.611-.242-4.64-.605-5.496-.726-.855-.122-13.067-.727-13.555-.727-.489 0 0-1.333 0-1.575v-2.666c0-.606-.244-1.575-.366-2.06-.123-.484-1.588-2.06-1.588-2.544 0-.485.61-.485.977-.485.366 0 2.565-.484 3.053-.484.489 0 3.053-1.09 3.542-1.212.488-.121 2.198-.606 2.93-.606.733 0 2.199-.242 2.687-.363.489-.121 1.221-1.408 1.466-1.771.244-.364 0-.653 0-1.016s-.123-1.09-.489-1.575C97.42.49 96.81.128 95.832.006c-.977-.12-2.93 1.455-2.93 1.455l-3.176 1.09S77.148 6.065 76.293 6.307c-.855.242-7.45 2.06-9.16 2.544-1.709.485-4.884 1.212-6.838 1.454-1.954.243-3.175 1.333-4.396 1.697-1.221.363-8.67 2.18-9.77 2.544-1.099.363-4.885 1.939-5.74 2.06-.854.12-3.785.363-4.64.605-.855.243-2.076 1.818-3.297 2.06s-7.816.727-8.915.97c-1.1.242-3.908 1.938-5.13 2.18-1.22.243-13.066 3.999-13.677 4.12-.61.121-3.785.242-4.396.727-.61.484-.244 1.575 0 2.302.244.727.855 1.09 1.466 1.09.298 0 3.907-1.965 8.182-2.679 4.274-.713 7.327-2.53 8.914-2.773 1.588-.242-.488 4.847-.488 6.422 0 1.575.244 3.877 0 6.663-.244 2.787-2.027 9.984-1.832 14.055Z" fill="#fff"/><path d="m117.57 24.845 1.343-.849 1.587.485.855 1.212.489 4.24v4.12l1.099 6.906v5.573l.733 6.3-.611 4.968-3.175-3.635v-7.39l-.977-8.36-.855-8.118-.488-5.452ZM99.618 8.534c1.099 1.333 1.755 2.968 3.663 3.635 2.145.75 2.443-3.029 5.74-.97 1.832 2.361 5.402 6.504 5.984 4.484.244-.848.122-1.333.488-2.06.367-.727 2.443-2.665 3.42-2.787.977-.12 3.541-.242 3.175-.969-.366-.727-1.954-2.787-3.175-3.029-1.221-.242-2.687-.363-3.42 0-.732.364-3.419 3.998-4.64 3.271-1.221-.727-1.099-2.544-3.175-3.27-2.076-.728-9.77.241-8.06 1.695Zm36.514 6.981c-1.466-.242-5.251-1.211-5.374-.242-.122.97.977 2.665 1.588 3.15.611.485 3.175-.242 3.786 0 .61.242 2.198 1.696 2.686 1.696.489 0 .367-1.211.733-1.696.367-.485 2.32-2.423 3.053-2.423.733 0 1.466.242 1.832.242.366 0 1.221-.242 1.221-.727 0-.484-.61-1.09-.977-1.454-.366-.363-3.297-.605-4.396-.363-1.099.242-2.687 2.06-4.152 1.817Zm19.173 64.547c.488-.243.244-4.24 0-4.968-.2-.595-3.129-1.402-3.664-.606-.244.364-.366 2.06 0 3.03.366.969 3.175 2.786 3.664 2.544ZM22.072 85.393s-4.03.363-4.641 1.09c-.61.727-1.221 4.362 0 4.968 1.221.606 3.175 0 4.152-.364.977-.363.855-.242 1.466-.363.61-.121 1.22-.485 1.831-.485.61 0 1.222-.242 1.71-.606.488-.363.733-.484 1.588-.848.854-.363 1.953-.363 2.808-.848.855-.484 1.588.243 2.32 0 .733-.242.855 0 1.71-.363.855-.364 1.1 0 2.32 0h4.031c1.222 0 1.466.363 2.565 0 1.1-.364 2.809-1.09 3.541-1.09h2.687c1.1 0 4.152-1.243 5.251-1.091 1.1.152 4.519.484 5.13.484.61 0 2.808-.727 3.54-1.09.734-.364.978 0 2.077 0h5.618c2.32 0 6.594-1.09 8.06-.727 1.465.364 8.035.29 8.914 0 1.1-.363 3.908 0 4.274 0h10.381c.488 0 .977-.727 1.709-.727h1.344c.61 0 1.587.364 2.076.727.488.364 2.32 0 3.175 0 .684 0 1.099-.242 1.221-.363l2.809-.364h5.007c1.465 0 3.175.364 3.907.364h9.16c.488 0 2.564.605 3.541.605.977 0 1.71-.363 2.687 0 .977.364 1.099.97 1.709 1.212.611.242 2.687.485 3.175 0 .489-.485 0-1.212 0-1.817 0-.606-1.709-1.576-2.564-1.939-1.54-.655-4.625 0-6.228 0 0 0-3.175 0-4.519-.364-1.343-.363-2.686-.484-3.907-.726-1.222-.243-4.153 0-4.153 0s-5.983-.243-6.96-.364c-.977-.121-6.351-.727-8.06-.727-1.71 0-7.45 1.09-8.427 1.09h-4.884s-5.984-.726-7.572-.726-6.96.727-6.96.727H70.674s-5.495.363-6.594 0c-1.1-.364-3.542 0-4.64 0-1.1 0-12.457.969-13.434.969-.977 0-8.67 1.333-9.892 1.454-1.22.12-7.327 1.333-7.327 1.333l-6.716.969Zm.511-17.968c1.235 0 2.22.351 2.952 1.053.734.69 1.1 1.64 1.1 2.852 0 1.213-.463 2.253-1.39 3.12-.925.856-2.057 1.283-3.395 1.283h-1.1l.232 4.901h-2.586l.232-4.652-.232-8.557h4.187Zm-.694 1.934h-.946l-.135 4.517h1.312c.643 0 1.139-.21 1.486-.631.36-.421.54-1.021.54-1.8 0-1.39-.752-2.086-2.257-2.086Zm7.471 4.609c0-1.634.444-3.019 1.332-4.154.888-1.136 1.923-1.704 3.106-1.704 1.197 0 2.123.383 2.779 1.148.669.766 1.003 1.78 1.003 3.044 0 1.685-.43 3.089-1.292 4.212-.85 1.11-1.923 1.665-3.223 1.665-1.067 0-1.955-.395-2.662-1.187-.695-.804-1.042-1.812-1.042-3.024Zm6.06-.67c0-1.851-.638-2.776-1.91-2.776-1.326 0-1.988.868-1.988 2.603 0 .906.186 1.615.56 2.125.372.51.861.766 1.466.766.617 0 1.08-.23 1.389-.69.322-.471.482-1.148.482-2.028Zm43.037 1.227-3.627-5.303v.134l.212 4.5-2.605.478.232-4.652-.232-9.687 2.644-.478-.251 9.246 3.859-4.192 1.814 1.225-3.377 3.14 3.531 4.134-2.2 1.455Zm18.807-.242-3.628-5.303v.134l.213 4.499-2.605.478.231-4.651-.231-9.687 2.643-.479-.25 9.247 3.858-4.193 1.814 1.225-3.376 3.14 3.53 4.135-2.2 1.455Zm10.153-1.417c.373 0 .766-.096 1.177-.287.412-.192.734-.383.965-.575l.347-.287.888 1.072a4.313 4.313 0 0 1-.598.747 6.15 6.15 0 0 1-.83.727c-.27.192-.637.37-1.1.536-.45.153-.919.23-1.408.23-1.042 0-1.891-.39-2.547-1.168-.656-.791-.984-1.806-.984-3.044 0-1.557.457-2.922 1.37-4.096s1.981-1.761 3.203-1.761c.939 0 1.666.261 2.18.784.528.524.791 1.257.791 2.202 0 .561-.096 1.2-.289 1.914l-.386.402-4.824.44c.219 1.443.901 2.164 2.045 2.164Zm0-5.935c-.566 0-1.042.23-1.427.69-.386.446-.611 1.02-.676 1.722l3.28-.402c.039-.293.058-.536.058-.727 0-.855-.411-1.283-1.235-1.283Zm9.185-6.93-.251 9.84.212 4.499-2.605.478.232-4.651-.232-9.687 2.644-.479Zm5.636 14.817c-.759 0-1.383-.236-1.872-.708-.476-.485-.714-1.13-.714-1.933 0-.817.373-1.52 1.119-2.106.747-.6 1.653-.9 2.721-.9h1.312v-.325c0-.626-.128-1.053-.386-1.283-.257-.23-.739-.345-1.447-.345-.296 0-.649.064-1.061.192a7.81 7.81 0 0 0-1.351.555L120 66.453c.553-.383 1.222-.728 2.006-1.034.798-.306 1.454-.46 1.968-.46 2.02 0 3.03.97 3.03 2.91v3.752c0 .715.225 1.513.675 2.393l-2.045.862a10.347 10.347 0 0 1-.714-1.647c-.708 1.06-1.602 1.59-2.682 1.59Zm.81-1.952c.515 0 1.1-.262 1.756-.785v-1.283c-.682-.153-1.235-.23-1.659-.23-.811 0-1.216.358-1.216 1.073 0 .37.103.67.309.9.206.216.476.325.81.325Zm13.101 1.53c-1.003 1.25-1.872 1.876-2.605 1.876-.913 0-1.666-.37-2.257-1.11-.579-.74-.869-1.691-.869-2.852 0-1.596.444-2.942 1.332-4.04.9-1.097 2-1.646 3.299-1.646l1.081.153v-.364l-.232-4.48 2.643-.478-.25 9.84v1.685c0 .765.193 1.646.578 2.641l-2.083.862c-.373-.766-.586-1.461-.637-2.087Zm-3.57-3.082c0 .817.148 1.455.444 1.915.309.459.746.689 1.312.689.579 0 1.177-.23 1.795-.69v-4.134c-.772-.154-1.345-.23-1.718-.23-.579 0-1.029.204-1.35.612-.322.409-.483 1.021-.483 1.838Zm12.297-3.816-.232 4.766.212 4.499-2.585.479.231-4.652-.212-4.614 2.586-.478Zm-2.721-2.795c0-.434.167-.817.502-1.149.334-.345.72-.517 1.157-.517.438 0 .772.121 1.004.364.231.23.347.58.347 1.053 0 .472-.167.88-.502 1.225-.321.332-.701.498-1.138.498-.425 0-.759-.14-1.003-.422-.245-.28-.367-.631-.367-1.052Zm-80.31 6.114c0-1.633.443-3.018 1.331-4.154.888-1.136 1.923-1.703 3.106-1.703 1.197 0 2.123.382 2.779 1.148.669.766 1.003 1.78 1.003 3.044 0 1.684-.43 3.088-1.292 4.212-.85 1.11-1.924 1.665-3.223 1.665-1.067 0-1.955-.396-2.663-1.187-.694-.804-1.041-1.812-1.041-3.025Zm6.058-.67c0-1.85-.637-2.775-1.91-2.775-1.325 0-1.987.867-1.987 2.603 0 .906.186 1.615.56 2.125.372.51.861.766 1.466.766.617 0 1.08-.23 1.389-.69.321-.472.482-1.148.482-2.029Zm-11.377 3.765c-1.003 1.25-1.871 1.876-2.604 1.876-.914 0-1.666-.37-2.258-1.11-.579-.74-.868-1.692-.868-2.853 0-1.595.444-2.942 1.331-4.04.9-1.097 2-1.646 3.3-1.646l1.08.154v-.364l-.231-4.48 2.643-.478-.25 9.84v1.684c0 .766.192 1.646.578 2.642l-2.084.861c-.373-.766-.585-1.461-.636-2.086Zm-3.57-3.083c0 .817.149 1.455.445 1.915.308.46.746.689 1.312.689.579 0 1.177-.23 1.794-.69V68.61c-.772-.153-1.344-.23-1.717-.23-.579 0-1.03.204-1.35.613-.322.408-.483 1.02-.483 1.837Zm-7.407.842c0-.88-.077-1.467-.232-1.76-.154-.294-.514-.441-1.08-.441-.566 0-1.21.223-1.93.67v1.397l.213 4.499-2.586.479.232-4.652c-.052-1.71-.193-3.242-.425-4.595l2.335-.497c.09.74.154 1.46.193 2.163.193-.255.411-.504.656-.747.244-.255.63-.536 1.158-.842a3.159 3.159 0 0 1 1.659-.479c.592 0 1.087.23 1.486.69.398.446.598 1.059.598 1.837l-.116 2.144.212 4.595-2.605.478.232-4.939Z" fill="#fff"/></svg>