<svg width="105" height="16" viewBox="0 0 105 16" fill="none" xmlns="http://www.w3.org/2000/svg">
<path d="M11.281 9.26633C12.1488 11.6404 14.9099 12.8657 17.3554 11.9467C19.8009 11.1043 21.0631 8.42392 20.1165 6.04986C19.2487 3.67581 16.4876 2.45049 14.0421 3.36948C11.6754 4.21188 10.4132 6.89227 11.281 9.26633Z" fill="white"/>
<path d="M5.28552 12.2529C7.89964 12.2529 10.0188 10.1957 10.0188 7.65794C10.0188 5.12022 7.89964 3.06299 5.28552 3.06299C2.6714 3.06299 0.552238 5.12022 0.552238 7.65794C0.552238 10.1957 2.6714 12.2529 5.28552 12.2529Z" fill="white"/>
<path d="M6.07439 7.58118C6.07439 8.04067 5.67995 8.42359 5.20662 8.42359C4.73329 8.42359 4.33885 8.04067 4.33885 7.58118C4.33885 7.12168 4.73329 6.73877 5.20662 6.73877C5.67995 6.73877 6.07439 7.12168 6.07439 7.58118Z" fill="#BE3538"/>
<path d="M16.5665 7.58118C16.5665 8.04067 16.1721 8.42359 15.6987 8.42359C15.2254 8.42359 14.831 8.04067 14.831 7.58118C14.831 7.12168 15.2254 6.73877 15.6987 6.73877C16.1721 6.73877 16.5665 7.12168 16.5665 7.58118Z" fill="#589442"/>
<path d="M2.60331 7.58142C2.60331 8.95991 3.78663 10.1086 5.20661 10.1086C6.6266 10.1086 7.80992 8.95991 7.80992 7.58142C7.80992 6.20294 6.6266 5.0542 5.20661 5.0542C3.78663 5.0542 2.60331 6.20294 2.60331 7.58142ZM3.47107 7.58142C3.47107 6.66243 4.25995 5.89661 5.20661 5.89661C6.15327 5.89661 6.94215 6.66243 6.94215 7.58142C6.94215 8.50041 6.15327 9.26624 5.20661 9.26624C4.25995 9.26624 3.47107 8.50041 3.47107 7.58142ZM13.0954 7.58142C13.0954 8.95991 14.2787 10.1086 15.6987 10.1086C17.1187 10.1086 18.302 8.95991 18.302 7.58142C18.302 6.20294 17.1187 5.0542 15.6987 5.0542C14.2787 5.0542 13.0954 6.20294 13.0954 7.58142ZM14.0421 7.58142C14.0421 6.66243 14.831 5.89661 15.7776 5.89661C16.7243 5.89661 17.5131 6.66243 17.5131 7.58142C17.5131 8.50041 16.7243 9.26624 15.7776 9.26624C14.7521 9.26624 14.0421 8.50041 14.0421 7.58142Z" fill="black"/>
<path d="M13.8843 2.90981C14.4365 2.68007 14.9887 2.60348 15.541 2.60348C14.0421 1.91424 12.3065 1.60791 10.4132 1.60791C8.51992 1.60791 6.78438 1.91424 5.28551 2.60348C8.04659 2.68007 10.2555 4.74779 10.4132 7.3516C10.4921 6.73894 10.571 6.12628 10.8866 5.5902C11.5177 4.2883 12.6221 3.36931 13.8843 2.90981Z" fill="#FFD881"/>
<path d="M19.9587 4.5946C20.1954 3.59902 20.9842 2.52687 20.9842 2.52687H17.5132C15.541 1.30155 13.1743 0.612305 10.4921 0.612305C7.73104 0.612305 5.28551 1.30155 3.31331 2.52687L1.04904e-05 2.60345C1.04904e-05 2.60345 0.788891 3.59902 1.02556 4.67118C0.394451 5.51359 1.04904e-05 6.50916 1.04904e-05 7.6579C1.04904e-05 10.4915 2.36665 12.7889 5.28551 12.7889C6.94216 12.7889 8.44104 12.0231 9.38769 10.8744L10.4921 12.4826L11.5966 10.8744C12.0699 11.487 12.7799 12.0231 13.4899 12.3294C14.7521 12.8655 16.1721 12.9421 17.5132 12.4826C20.1954 11.487 21.6153 8.57689 20.5898 5.8965C20.5109 5.437 20.2742 4.97751 19.9587 4.5946ZM10.4921 1.60788C12.3854 1.60788 14.121 1.91421 15.6199 2.60345C15.0676 2.60345 14.5154 2.68003 13.9632 2.90978C12.6221 3.36928 11.5966 4.28827 11.0443 5.59017C10.8077 6.12625 10.6499 6.73891 10.571 7.35157C10.4132 4.74776 8.12548 2.68003 5.44329 2.60345C6.86327 1.91421 8.59881 1.60788 10.4921 1.60788ZM8.75659 9.95537C7.96771 11.0275 6.7055 11.7168 5.28551 11.7168C2.99776 11.7168 1.10444 9.87879 1.10444 7.6579C1.10444 5.437 2.99776 3.59902 5.28551 3.59902C7.57327 3.59902 9.46658 5.36042 9.46658 7.6579C9.46658 7.81106 9.46658 7.88765 9.38769 8.04081C9.3088 8.73005 9.15103 9.34271 8.75659 9.95537ZM17.1976 11.487C16.1721 11.8699 14.9887 11.7934 13.9632 11.3339C13.2532 11.0275 12.6221 10.4915 12.2277 9.87879C12.0699 9.64904 11.9121 9.34271 11.7543 9.03638C11.5966 8.73005 11.5966 8.34714 11.5177 8.04081C11.4388 7.35157 11.5177 6.58574 11.8332 5.97308C12.3066 4.97751 13.1743 4.21168 14.1999 3.82877C16.4087 3.06295 18.7754 4.1351 19.5643 6.20283C20.5109 8.34714 19.3276 10.7212 17.1976 11.487Z" fill="black"/>
<path d="M75.417 1.53171C75.417 2.06778 75.8903 2.52728 76.4425 2.52728C76.9947 2.52728 77.4681 2.06778 77.4681 1.53171C77.4681 0.995628 76.9947 0.536133 76.4425 0.536133C75.8903 0.536133 75.417 0.995628 75.417 1.53171Z" fill="#589442"/>
<path d="M27.2164 1.455L25.6386 1.99108V3.90564H23.9031V5.20754H25.5597V9.41958C25.5597 11.4107 26.2697 12.2531 28.0053 12.2531C28.4786 12.2531 28.873 12.1766 29.2675 12.1H29.3464V10.7215H29.2675C28.9519 10.7981 28.6364 10.8746 28.4786 10.8746C27.6897 10.8746 27.3742 10.4152 27.3742 9.26642V5.20754H29.3464V3.90564H27.3742V1.37842L27.2164 1.455ZM32.5019 5.20754V3.90564H30.9241V12.1H32.6597V7.96451C32.6597 6.2797 33.3697 5.28413 34.7896 5.28413C34.9474 5.28413 35.1841 5.28413 35.4207 5.36071H35.4996V3.82906L34.7896 3.75248C33.843 3.75248 32.9752 4.28855 32.5019 5.20754ZM44.7295 3.67589C43.5462 3.67589 42.5996 4.21197 41.8896 5.20754V3.90564H40.3118V15.393H42.0473V10.9512C42.6784 11.7936 43.5462 12.1766 44.6507 12.1766C46.7806 12.1766 48.2006 10.4917 48.2006 7.81135C48.2006 5.36071 46.7806 3.67589 44.7295 3.67589ZM44.2562 10.8746C42.9151 10.8746 42.0473 9.72591 42.0473 7.96451C42.0473 6.20312 42.9151 5.13096 44.3351 5.13096C45.6762 5.13096 46.4651 6.20312 46.4651 7.96451C46.3862 9.72591 45.5973 10.8746 44.2562 10.8746Z" fill="black"/>
<path d="M53.1705 3.67596C52.145 3.67596 51.1983 3.82912 50.4095 4.28862H50.3306V5.6671H50.4883C51.2772 5.20761 52.0661 4.97786 52.7761 4.97786C54.0383 4.97786 54.7483 5.6671 54.7483 6.89242V6.96901H53.8016C50.9617 6.96901 49.4628 7.96458 49.4628 9.72598C49.4628 11.181 50.5672 12.1766 52.145 12.1766C53.3283 12.1766 54.1961 11.7171 54.9061 10.8747V12.0235H56.4838V7.12217C56.3261 4.8247 55.3005 3.67596 53.1705 3.67596ZM54.6694 8.65382C54.6694 10.0323 53.8016 10.9513 52.4605 10.9513C51.6717 10.9513 51.0406 10.4152 51.0406 9.64939C51.0406 8.65382 51.9872 8.11775 53.8016 8.11775H54.6694V8.65382ZM63.5838 0V4.97786C62.9527 4.13546 62.0849 3.67596 60.9805 3.67596C58.9294 3.67596 57.5094 5.36077 57.5094 7.81141C57.5094 10.3386 58.9294 12.1766 60.9805 12.1766C62.1638 12.1766 63.1104 11.6405 63.7415 10.645V12.0235H65.3193V0H63.5838ZM61.3749 10.7981C60.1127 10.7981 59.2449 9.72598 59.2449 7.888C59.2449 6.1266 60.0338 4.97786 61.296 4.97786C62.716 4.97786 63.5838 6.05002 63.5838 7.888C63.5838 9.72598 62.716 10.7981 61.3749 10.7981ZM72.8926 3.90571L70.447 8.65382L68.2382 3.90571H66.3448L70.447 12.1L74.707 3.90571H72.8926ZM77.1525 3.90571H75.5748V12.1H77.3103V3.90571H77.1525ZM79.2825 5.97343C79.2825 7.12217 80.0714 7.73483 81.5702 8.42408C82.5169 8.88357 82.9902 9.11332 82.9902 9.80256C82.9902 10.4918 82.3591 10.8747 81.4125 10.8747C80.7814 10.8747 79.9925 10.7215 79.2825 10.3386L79.1247 10.2621L79.0458 11.7171H79.1247C79.8347 12.0235 80.5447 12.1 81.3336 12.1C83.3847 12.1 84.8047 11.1045 84.8047 9.64939C84.8047 8.42408 83.9369 7.73483 82.438 7.12217C81.3336 6.66268 80.9391 6.35635 80.9391 5.82027C80.9391 5.36077 81.4125 4.97786 82.2013 4.97786C82.9113 4.97786 83.6213 5.13103 84.2524 5.43736L84.4102 5.51394L84.4891 4.13546H84.4102C83.7002 3.90571 82.9902 3.82912 82.3591 3.82912C80.5447 3.82912 79.2825 4.67153 79.2825 5.97343ZM90.169 3.67596C87.5657 3.67596 85.988 5.28419 85.988 7.96458C85.988 10.645 87.5657 12.2532 90.169 12.2532C92.7724 12.2532 94.3501 10.645 94.3501 7.96458C94.3501 5.28419 92.7724 3.67596 90.169 3.67596ZM90.169 10.8747C88.7491 10.8747 87.8024 9.72598 87.8024 7.96458C87.8024 6.20318 88.7491 4.97786 90.169 4.97786C91.589 4.97786 92.5357 6.1266 92.5357 7.96458C92.5357 9.72598 91.6679 10.8747 90.169 10.8747ZM97.5056 5.20761V3.90571H95.9279V12.1H97.6634V7.96458C97.6634 6.27976 98.3734 5.28419 99.7934 5.28419C99.9512 5.28419 100.188 5.28419 100.424 5.36077H100.503L100.582 3.75254L99.8723 3.67596C98.7678 3.75254 97.979 4.28862 97.5056 5.20761Z" fill="#589442"/>
<path d="M38.5763 3.90576H36.9985V12.1001H38.6551V3.90576H38.5763ZM36.7618 1.53171C36.7618 2.06778 37.2352 2.52728 37.7874 2.52728C38.3396 2.52728 38.8129 2.06778 38.8129 1.53171C38.8129 0.995628 38.3396 0.536133 37.7874 0.536133C37.2352 0.536133 36.7618 0.995628 36.7618 1.53171Z" fill="black"/>
<path d="M104.606 3.52267C104.921 3.829 105 4.13533 105 4.59482C105 4.97774 104.842 5.36065 104.527 5.66698C104.211 5.97331 103.817 6.12647 103.422 6.12647C103.028 6.12647 102.633 5.97331 102.318 5.66698C102.002 5.36065 101.844 5.05432 101.844 4.6714C101.844 4.28849 102.002 3.90558 102.318 3.59925C102.633 3.29292 102.949 3.21634 103.343 3.21634C103.896 3.06317 104.29 3.21634 104.606 3.52267ZM102.633 3.67583C102.397 3.90558 102.239 4.21191 102.239 4.51824C102.239 4.82457 102.397 5.1309 102.633 5.36065C102.87 5.5904 103.186 5.74356 103.501 5.74356C103.817 5.74356 104.132 5.5904 104.369 5.36065C104.606 5.1309 104.763 4.82457 104.763 4.51824C104.763 4.21191 104.606 3.90558 104.448 3.67583C104.211 3.44609 103.896 3.29292 103.58 3.29292C103.186 3.3695 102.87 3.44609 102.633 3.67583ZM103.501 3.75242C103.974 3.75242 104.211 3.90558 104.211 4.21191C104.211 4.44166 104.053 4.59482 103.817 4.6714L104.211 5.36065H103.738L103.422 4.74799H103.343V5.36065H102.87V3.75242H103.501ZM103.343 4.44166H103.501C103.738 4.44166 103.817 4.36507 103.817 4.21191C103.817 4.05875 103.738 3.98216 103.501 3.98216H103.343V4.44166Z" fill="#ABC99F"/>
</svg>
